<?xml version="1.0" encoding="UTF-8"?>
<svg version="1.1" xmlns="http://www.w3.org/2000/svg" width="485" height="485">
<path d="M0 0 C0.74967816 -0.00696761 1.49935632 -0.01393521 2.271752 -0.02111396 C4.79842656 -0.03843881 7.32358421 -0.01995162 9.85023499 -0.0017767 C11.67400531 -0.00681894 13.49777068 -0.01404526 15.32152462 -0.02327484 C20.34442579 -0.04226996 25.36684263 -0.02992256 30.38973188 -0.0125519 C35.80222153 0.00078044 41.21463834 -0.01460011 46.62712097 -0.02637386 C57.23462006 -0.04478575 67.84193537 -0.03621446 78.4494288 -0.01828564 C87.06773445 -0.00427937 95.68599009 -0.00036259 104.30430603 -0.00372791 C106.14182526 -0.00444408 106.14182526 -0.00444408 108.01646608 -0.00517471 C110.50479103 -0.006201 112.99311597 -0.00725636 115.4814409 -0.00834047 C137.50130039 -0.01691472 159.52107096 -0.00020902 181.54090881 0.02948856 C202.92441091 0.05832769 224.30778323 0.06541042 245.69129944 0.04999638 C268.95750783 0.03324826 292.22365534 0.02918582 315.4898653 0.04670674 C317.96921094 0.04855119 320.44855657 0.05038592 322.92790222 0.05221081 C324.14789616 0.0531229 325.3678901 0.05403499 326.62485355 0.05497472 C335.23619513 0.06058876 343.84750707 0.05726486 352.45884705 0.05066586 C362.94834834 0.04294698 373.43772335 0.04963303 383.92719913 0.0748409 C389.28259024 0.08736953 394.63778442 0.09344181 399.99318314 0.08229923 C404.89083276 0.07230122 409.78808859 0.08062123 414.68569005 0.10388041 C416.46220468 0.10906463 418.23875424 0.10743338 420.0152539 0.09848576 C422.42138327 0.08737042 424.82616243 0.10063407 427.23220825 0.12025452 C427.92967749 0.1111757 428.62714673 0.10209688 429.3457514 0.09274295 C432.70281354 0.146486 434.35168793 0.41626379 437.01509762 2.53304726 C440.12865111 6.60411398 439.75619989 10.18653266 439.74308777 15.13340092 C439.74464776 16.02472481 439.74620775 16.91604871 439.74781501 17.83438241 C439.75182346 20.84010814 439.7486357 23.84578389 439.74549866 26.85151005 C439.74685298 29.00002923 439.74863308 31.14854818 439.75080872 33.29706669 C439.75538539 39.15375059 439.75359094 45.01041696 439.75042963 50.86710119 C439.74790009 57.0085009 439.7502459 63.1498991 439.7518158 69.29129887 C439.75363876 79.63005689 439.75123101 89.96880779 439.74647522 100.30756474 C439.74106397 112.20751481 439.74277174 124.10744766 439.74830163 136.00739729 C439.75286711 146.24637072 439.75346566 156.48533902 439.75086296 166.72431314 C439.74931488 172.82838718 439.749065 178.93245318 439.75239944 185.03652668 C439.75532712 190.80012389 439.75321433 196.56369943 439.74750519 202.32729435 C439.74620209 204.42321455 439.74652895 206.51913663 439.74876785 208.61505604 C439.75522687 215.28655486 439.71352295 221.95561354 439.61610413 228.62641239 C439.6029685 229.66557159 439.58983287 230.70473079 439.57629919 231.77537966 C439.52594864 234.97815657 439.44618997 238.17895911 439.35801697 241.38089848 C439.33761846 242.82629834 439.33761846 242.82629834 439.31680787 244.30089819 C438.84903126 258.02233612 432.53882887 270.24868578 422.61610413 279.62641239 C410.65388822 289.03898933 398.01781237 291.23374957 383.13160706 291.13434696 C381.60759497 291.13896594 380.08358736 291.1453255 378.55958891 291.15325594 C374.40675422 291.1698357 370.25429084 291.16175515 366.10145545 291.14931107 C361.60920783 291.14021599 357.11702158 291.15425229 352.62478638 291.16523075 C343.83832771 291.1829732 335.05200608 291.17919509 326.26554215 291.16758019 C319.12159678 291.15852927 311.9776897 291.15732903 304.83374023 291.16167545 C303.30584994 291.16259485 303.30584994 291.16259485 301.74709317 291.16353282 C299.67753461 291.16481179 297.60797606 291.16610864 295.53841752 291.16742319 C276.15366683 291.17881647 256.76899194 291.16573495 237.38425368 291.14422172 C220.76830261 291.12635189 204.15246334 291.12945635 187.53651428 291.14789677 C168.21889103 291.16932561 148.90133413 291.17771795 129.58370066 291.16544771 C127.52195645 291.16417358 125.46021224 291.16291609 123.39846802 291.16167545 C121.87702913 291.1607498 121.87702913 291.1607498 120.32485411 291.15980545 C113.19340047 291.15635859 106.06198908 291.16216654 98.93054199 291.17159367 C90.23407357 291.18283742 81.53774949 291.17972373 72.84129751 291.15847069 C68.4082326 291.14799221 63.97540792 291.14378351 59.54234505 291.1570673 C55.47725374 291.1690638 51.41262335 291.1623104 47.34757334 291.14115709 C45.88408406 291.13672154 44.42055512 291.13888797 42.95709175 291.14866024 C27.46293443 291.24411411 13.85980701 287.6531168 2.36610413 276.87641239 C-8.24218009 265.62520186 -11.53408351 252.81652685 -11.53106689 237.75127506 C-11.53474358 236.76145667 -11.53842027 235.77163828 -11.54220837 234.75182539 C-11.55321458 231.43779897 -11.55708376 228.12380394 -11.56089783 224.809762 C-11.56716448 222.43278244 -11.57381146 220.05580385 -11.58081055 217.67882633 C-11.60000562 210.55184671 -11.61063043 203.42486657 -11.61953834 196.29786834 C-11.62392696 192.93984326 -11.62929197 189.58181974 -11.63452721 186.22379589 C-11.65152775 175.06054703 -11.66602443 163.89729912 -11.67327595 152.73403931 C-11.67518573 149.84098592 -11.67710609 146.94793254 -11.67906189 144.05487919 C-11.67954563 143.33585498 -11.68002937 142.61683076 -11.68052777 141.87601794 C-11.68883793 130.21411451 -11.71419664 118.55231332 -11.74664257 106.89045458 C-11.77969422 94.91323699 -11.79772265 82.93607145 -11.80092019 70.958808 C-11.80308616 64.23550217 -11.81184832 57.51234581 -11.83738136 50.78908443 C-11.86058549 44.46975687 -11.86492615 38.15069889 -11.85461998 31.83133984 C-11.85412275 29.50973078 -11.86049804 27.18810877 -11.87417603 24.86653996 C-11.89177968 21.70222187 -11.8848454 18.53888357 -11.87164307 15.37456608 C-11.88261231 14.45161352 -11.89358156 13.52866095 -11.90488321 12.57774013 C-11.89630231 11.72850335 -11.88772142 10.87926658 -11.8788805 10.00429535 C-11.87985731 9.27430783 -11.88083412 8.54432031 -11.88184053 7.79221195 C-10.34307512 1.09938489 -6.20247407 -0.10663993 0 0 Z M295.36610413 55.79828739 C293.69022285 57.54898479 291.95863619 59.11640658 290.11610413 60.68891239 C285.41776559 64.74077412 280.91179384 68.99106379 276.38539124 73.23236942 C272.50459996 76.86722544 268.60598588 80.47943982 264.67860413 84.06391239 C259.95517056 88.38048223 255.27892995 92.7444863 250.61610413 97.12641239 C243.06135413 104.22475743 235.43137901 111.23445837 227.77235413 118.22016239 C222.65980144 122.8929256 217.57576287 127.59220612 212.53065491 132.33783817 C209.82320354 134.88303113 207.10795403 137.41983736 204.39295959 139.9569788 C202.85438858 141.4025337 201.32964191 142.86277594 199.80751038 144.32563114 C196.72599639 147.22007176 194.41332559 149.32940832 190.42860413 150.81391239 C183.35145344 150.34210235 179.56156862 145.77795801 174.89344788 140.94672489 C172.32697579 138.33182881 169.62471082 135.95615466 166.84657288 133.57172489 C164.05744238 131.13917325 161.33704568 128.63450268 158.61610413 126.12641239 C154.0097726 121.88798262 149.36973178 117.69935627 144.61610413 113.62641239 C143.77047913 112.88391239 142.92485413 112.14141239 142.05360413 111.37641239 C134.96600011 106.28787618 128.23742515 105.49679555 119.61610413 106.62641239 C113.29339565 108.99363444 108.40220092 113.88441384 105.50672913 119.95063114 C103.51890485 125.92282249 103.52380655 133.08388906 106.11610413 138.87641239 C110.12595688 145.69598591 116.62441725 150.68834872 122.54969788 155.77875614 C124.82759891 157.81551831 126.97029001 159.95115314 129.11610413 162.12641239 C131.80388873 164.85082779 134.51427275 167.45901551 137.42860413 169.93891239 C141.00509253 173.00141444 144.30999906 176.27921855 147.61610413 179.62641239 C151.44497702 183.50269433 155.32450841 187.19689832 159.49501038 190.70844364 C161.23400176 192.28090178 162.84246971 193.87916498 164.45594788 195.57563114 C172.05686573 203.56077654 177.66416674 208.61677944 189.05360413 209.18891239 C198.90858353 208.8328467 205.13158853 204.6901791 211.70985413 197.64203739 C213.47120825 195.77962197 215.27941067 194.14723995 217.24110413 192.50141239 C221.23757913 189.07360577 224.91544051 185.36609196 228.61610413 181.62641239 C232.88964569 177.30781504 237.18746643 173.12555666 241.82704163 169.19672489 C244.55836614 166.79936145 247.06357609 164.18759058 249.61219788 161.59906864 C252.19856564 159.0530341 254.93145693 156.70619683 257.68251038 154.34125614 C259.5710501 152.6663694 261.3476606 150.92693652 263.11610413 149.12641239 C265.46643513 146.73363748 267.88032813 144.49450127 270.42860413 142.31391239 C274.4764275 138.8298091 278.20414962 135.07652783 281.92860413 131.25141239 C284.03751721 129.19154379 286.16584786 127.26509158 288.39735413 125.34516239 C292.85539164 121.48097228 296.98408746 117.33369348 301.11610413 113.12641239 C305.83565269 108.32089755 310.60819267 103.69506305 315.71424866 99.30121708 C318.70881176 96.66415637 321.50541432 93.84380204 324.30360413 91.00141239 C324.84565491 90.45484989 325.38770569 89.90828739 325.94618225 89.34516239 C327.0069841 88.27540323 328.06534911 87.20322085 329.12098694 86.12836552 C330.51917925 84.72378042 331.95513077 83.35706787 333.39344788 81.99359989 C337.09099938 78.05561007 338.48902056 73.66625131 338.71376038 68.29047489 C338.2089415 61.07525879 335.50741314 56.12028915 330.17860413 51.31391239 C324.53285949 46.53271334 319.02591916 46.18007152 311.83876038 46.31781864 C304.51847279 47.01879164 300.26735573 50.59070756 295.36610413 55.79828739 Z " fill="#854FF9" transform="translate(30.383895874023438,178.3735876083374)"/>
<path d="M0 0 C0.71110343 -0.00911937 1.42220687 -0.01823873 2.15485889 -0.02763444 C4.13569636 -0.0532057 6.11640524 -0.08823622 8.09708691 -0.12388897 C17.03235507 0.35801196 17.03235507 0.35801196 19.74732018 3.07297707 C20.63588774 8.70057166 20.79165226 14.19686511 20.74732018 19.88547707 C20.69404047 33.36994462 20.75474191 46.15025607 30.55982018 56.57297707 C38.49831049 63.76536866 47.85376991 66.62654263 58.49732018 66.37375832 C68.11966562 65.48322875 75.65862674 62.525454 82.58325768 55.71360207 C89.32977319 47.4813918 91.81653757 39.14234752 91.95825768 28.69016457 C91.98630113 27.2617672 92.01496538 25.8333819 92.04419518 24.40500832 C92.08557827 22.16884319 92.12249663 19.93291008 92.14868736 17.69651222 C92.17624841 15.52726745 92.22208112 13.3590244 92.27075768 11.19016457 C92.29057701 9.89707375 92.31039635 8.60398293 92.33081627 7.27170753 C92.74732018 4.07297707 92.74732018 4.07297707 93.95703697 2.15525246 C96.35781183 0.70391809 98.06778196 0.66927451 100.86841393 0.63938332 C101.88089195 0.62794289 102.89336998 0.61650246 103.93652916 0.60471535 C105.00846519 0.61486671 106.08040123 0.62501808 107.18482018 0.63547707 C108.27415855 0.64305031 109.36349693 0.65062355 110.48584557 0.65842628 C122.54284428 0.90572156 131.13046058 3.82548867 140.74732018 11.07297707 C141.61357018 11.65047707 142.47982018 12.22797707 143.37232018 12.82297707 C153.10406318 22.04252308 158.28052435 34.43152138 158.92188072 47.67844582 C158.98122538 51.8952856 158.9753615 56.10616391 158.93482018 60.32297707 C158.92522938 61.86277106 158.91579144 63.40256601 158.90649986 64.94236183 C158.87780934 68.87840948 158.83086215 72.81401587 158.77728844 76.74979591 C158.7479771 79.02205172 158.72559545 81.29428109 158.70483971 83.56662941 C158.66399291 87.71540171 158.58444076 91.86241291 158.49732018 96.01047707 C158.48338219 97.27085793 158.4694442 98.53123878 158.45508385 99.829813 C158.40638145 101.57246437 158.40638145 101.57246437 158.35669518 103.35032082 C158.32527428 104.87000465 158.32527428 104.87000465 158.29321861 106.42038918 C157.57733766 109.89894308 156.55633136 110.91377686 153.74732018 113.07297707 C151.14460763 113.46620166 148.96406584 113.61298697 146.3634243 113.57913494 C145.23890706 113.58830498 145.23890706 113.58830498 144.0916723 113.59766027 C141.5651963 113.61333189 139.03967048 113.60036578 136.51318932 113.58764076 C134.68942038 113.59296288 132.86565582 113.60002662 131.04189968 113.60868782 C126.01907031 113.62738635 120.99653432 113.62098544 115.97369242 113.61053479 C110.56120291 113.60356321 105.14877493 113.6195251 99.73630333 113.63253212 C89.12883665 113.65421131 78.52147708 113.65403525 67.9139955 113.64590658 C59.29569254 113.63961544 50.67742089 113.64073545 42.05911827 113.64717865 C40.22159905 113.64853113 40.22159905 113.64853113 38.34695822 113.64991094 C35.85863327 113.65176207 33.37030833 113.65362463 30.8819834 113.6554985 C7.53028037 113.67209048 -15.82136231 113.66334571 -39.17306173 113.64651292 C-60.55496188 113.63154563 -81.93671849 113.6464459 -103.31860101 113.67528308 C-125.25456304 113.70464807 -147.19046017 113.71565793 -169.126441 113.70610088 C-171.60578663 113.70507829 -174.08513227 113.70408368 -176.56447792 113.70311737 C-178.39446883 113.70240279 -178.39446883 113.70240279 -180.26142925 113.70167376 C-188.87278534 113.69950589 -197.48408024 113.70933348 -206.09542274 113.7238884 C-216.58493556 113.74136993 -227.07426918 113.74135453 -237.56377482 113.71853674 C-242.91921266 113.70735676 -248.27433427 113.70431679 -253.62975883 113.72283745 C-258.52747219 113.73955776 -263.42459148 113.73340661 -268.32226574 113.70862066 C-270.09878437 113.70370906 -271.87535015 113.70732937 -273.6518296 113.7201081 C-276.05820736 113.73617548 -278.46250216 113.72175376 -280.86878395 113.69938946 C-281.56625319 113.71138114 -282.26372243 113.72337281 -282.9823271 113.73572788 C-286.63417084 113.66593181 -288.01723717 113.30073459 -290.68242741 110.72253937 C-292.60943978 107.47099887 -292.75957319 105.42071914 -292.77025795 101.65305519 C-292.78286659 100.37402321 -292.79547523 99.09499123 -292.80846596 97.7772007 C-292.80129975 96.3862039 -292.79309418 94.99521213 -292.78392982 93.60422707 C-292.78662857 92.16277747 -292.79051417 90.72132965 -292.7955265 89.27988625 C-292.80141878 86.25696437 -292.79287821 83.23451567 -292.7741642 80.21164894 C-292.75153784 76.37324819 -292.76439359 72.53597649 -292.78845406 68.69761848 C-292.80306086 65.71689638 -292.79823619 62.73643188 -292.78794289 59.75570107 C-292.78530781 58.3429901 -292.78842951 56.93025434 -292.7978611 55.5175724 C-292.87455785 40.78373988 -289.77626493 27.56112436 -279.81517982 16.32297707 C-278.96955482 15.58047707 -278.12392982 14.83797707 -277.25267982 14.07297707 C-276.75252357 13.59344582 -276.25236732 13.11391457 -275.73705482 12.61985207 C-265.37745542 3.03480215 -254.10820113 0.72898494 -240.44017982 0.82297707 C-238.72411537 0.8113755 -238.72411537 0.8113755 -236.97338295 0.79953957 C-235.88348061 0.80211769 -234.79357826 0.80469582 -233.67064857 0.80735207 C-232.18214394 0.81073586 -232.18214394 0.81073586 -230.6635685 0.814188 C-228.25267982 1.07297707 -228.25267982 1.07297707 -226.25267982 3.07297707 C-225.98143959 6.17063332 -225.98143959 6.17063332 -225.94408607 10.13547707 C-225.91888996 11.58730337 -225.89349257 13.03912619 -225.8679142 14.49094582 C-225.83939064 16.77039298 -225.81537311 19.04977818 -225.796381 21.32932472 C-225.66705203 34.32191215 -224.74163476 46.05963141 -215.46752357 55.98313332 C-207.06647937 63.84971745 -197.85377837 66.50567729 -186.50658607 66.33860207 C-175.91321334 65.47383694 -168.13638633 61.10607309 -161.25267982 53.07297707 C-153.26227793 41.41639077 -153.91984577 27.32186189 -153.7741642 13.75266457 C-153.74773842 12.54868019 -153.72131264 11.34469582 -153.69408607 10.10422707 C-153.68063148 9.01690285 -153.6671769 7.92957863 -153.65331459 6.80930519 C-153.25267982 4.07297707 -153.25267982 4.07297707 -152.08987904 2.42687702 C-149.50170425 0.51955543 -147.65588964 0.68825033 -144.45685768 0.67424965 C-143.24738976 0.6617115 -142.03792183 0.64917336 -140.79180336 0.63625526 C-139.44909069 0.63742948 -138.10637824 0.63888869 -136.76366615 0.64060402 C-135.35076984 0.63158769 -133.93788138 0.62126078 -132.52500343 0.60972023 C-128.68123369 0.58206711 -124.83761195 0.57285136 -120.99375558 0.56686616 C-116.95994318 0.55747613 -112.92624061 0.53125897 -108.89249611 0.50686073 C-101.23349723 0.46311046 -93.57451953 0.43463058 -85.91543359 0.41153735 C-77.26312867 0.3846961 -68.61093921 0.34067102 -59.95871508 0.29524863 C-46.44712404 0.2247844 -32.93551642 0.16393288 -19.4238224 0.11716652 C-18.12085213 0.11252892 -16.81788185 0.10789131 -15.47542763 0.10311317 C-12.99200001 0.09498471 -10.50856011 0.08992587 -8.02511978 0.08819962 C-5.34836724 0.07739838 -2.67598308 0.04834237 0 0 Z " fill="#5E7CFB" transform="translate(311.2526798248291,46.92702293395996)"/>
<path d="M0 0 C0.74967816 -0.00696761 1.49935632 -0.01393521 2.271752 -0.02111396 C4.79842656 -0.03843881 7.32358421 -0.01995162 9.85023499 -0.0017767 C11.67400531 -0.00681894 13.49777068 -0.01404526 15.32152462 -0.02327484 C20.34442579 -0.04226996 25.36684263 -0.02992256 30.38973188 -0.0125519 C35.80222153 0.00078044 41.21463834 -0.01460011 46.62712097 -0.02637386 C57.23462006 -0.04478575 67.84193537 -0.03621446 78.4494288 -0.01828564 C87.06773445 -0.00427937 95.68599009 -0.00036259 104.30430603 -0.00372791 C106.14182526 -0.00444408 106.14182526 -0.00444408 108.01646608 -0.00517471 C110.50479103 -0.006201 112.99311597 -0.00725636 115.4814409 -0.00834047 C137.50130039 -0.01691472 159.52107096 -0.00020902 181.54090881 0.02948856 C202.92441091 0.05832769 224.30778323 0.06541042 245.69129944 0.04999638 C268.95750783 0.03324826 292.22365534 0.02918582 315.4898653 0.04670674 C317.96921094 0.04855119 320.44855657 0.05038592 322.92790222 0.05221081 C324.14789616 0.0531229 325.3678901 0.05403499 326.62485355 0.05497472 C335.23619513 0.06058876 343.84750707 0.05726486 352.45884705 0.05066586 C362.94834834 0.04294698 373.43772335 0.04963303 383.92719913 0.0748409 C389.28259024 0.08736953 394.63778442 0.09344181 399.99318314 0.08229923 C404.89083276 0.07230122 409.78808859 0.08062123 414.68569005 0.10388041 C416.46220468 0.10906463 418.23875424 0.10743338 420.0152539 0.09848576 C422.42138327 0.08737042 424.82616243 0.10063407 427.23220825 0.12025452 C427.92967749 0.1111757 428.62714673 0.10209688 429.3457514 0.09274295 C432.70281354 0.146486 434.35168793 0.41626379 437.01509762 2.53304726 C440.12865111 6.60411398 439.75619989 10.18653266 439.74308777 15.13340092 C439.74464776 16.02472481 439.74620775 16.91604871 439.74781501 17.83438241 C439.75182346 20.84010814 439.7486357 23.84578389 439.74549866 26.85151005 C439.74685298 29.00002923 439.74863308 31.14854818 439.75080872 33.29706669 C439.75538539 39.15375059 439.75359094 45.01041696 439.75042963 50.86710119 C439.74790009 57.0085009 439.7502459 63.1498991 439.7518158 69.29129887 C439.75363876 79.63005689 439.75123101 89.96880779 439.74647522 100.30756474 C439.74106397 112.20751481 439.74277174 124.10744766 439.74830163 136.00739729 C439.75286711 146.24637072 439.75346566 156.48533902 439.75086296 166.72431314 C439.74931488 172.82838718 439.749065 178.93245318 439.75239944 185.03652668 C439.75532712 190.80012389 439.75321433 196.56369943 439.74750519 202.32729435 C439.74620209 204.42321455 439.74652895 206.51913663 439.74876785 208.61505604 C439.75522687 215.28655486 439.71352295 221.95561354 439.61610413 228.62641239 C439.6029685 229.66557159 439.58983287 230.70473079 439.57629919 231.77537966 C439.52594864 234.97815657 439.44618997 238.17895911 439.35801697 241.38089848 C439.33761846 242.82629834 439.33761846 242.82629834 439.31680787 244.30089819 C438.84903126 258.02233612 432.53882887 270.24868578 422.61610413 279.62641239 C410.65388822 289.03898933 398.01781237 291.23374957 383.13160706 291.13434696 C381.60759497 291.13896594 380.08358736 291.1453255 378.55958891 291.15325594 C374.40675422 291.1698357 370.25429084 291.16175515 366.10145545 291.14931107 C361.60920783 291.14021599 357.11702158 291.15425229 352.62478638 291.16523075 C343.83832771 291.1829732 335.05200608 291.17919509 326.26554215 291.16758019 C319.12159678 291.15852927 311.9776897 291.15732903 304.83374023 291.16167545 C303.30584994 291.16259485 303.30584994 291.16259485 301.74709317 291.16353282 C299.67753461 291.16481179 297.60797606 291.16610864 295.53841752 291.16742319 C276.15366683 291.17881647 256.76899194 291.16573495 237.38425368 291.14422172 C220.76830261 291.12635189 204.15246334 291.12945635 187.53651428 291.14789677 C168.21889103 291.16932561 148.90133413 291.17771795 129.58370066 291.16544771 C127.52195645 291.16417358 125.46021224 291.16291609 123.39846802 291.16167545 C121.87702913 291.1607498 121.87702913 291.1607498 120.32485411 291.15980545 C113.19340047 291.15635859 106.06198908 291.16216654 98.93054199 291.17159367 C90.23407357 291.18283742 81.53774949 291.17972373 72.84129751 291.15847069 C68.4082326 291.14799221 63.97540792 291.14378351 59.54234505 291.1570673 C55.47725374 291.1690638 51.41262335 291.1623104 47.34757334 291.14115709 C45.88408406 291.13672154 44.42055512 291.13888797 42.95709175 291.14866024 C33.48273933 291.20702828 25.50896177 289.94142458 16.61610413 286.62641239 C20.355618 285.51115644 20.355618 285.51115644 22.69999313 286.54846001 C27.16918154 288.20051383 31.54676718 287.89756853 36.27388 287.87365055 C37.90442766 287.87727217 37.90442766 287.87727217 39.56791568 287.88096696 C43.21978136 287.88661297 46.87147279 287.87793252 50.52333069 287.86933231 C53.14091031 287.8704053 55.75848971 287.87234422 58.37606812 287.87508488 C64.76666972 287.88013296 71.15721962 287.8744704 77.54781482 287.86523458 C85.04257363 287.85480037 92.53732152 287.85492243 100.03208622 287.85540716 C113.47302612 287.85590856 126.91394234 287.84674201 140.35487366 287.83222294 C153.26926609 287.81828051 166.18363763 287.81104588 179.09803772 287.81171513 C179.88591991 287.81175508 180.67380209 287.81179504 181.48555949 287.81183621 C182.66570135 287.81189674 182.66570135 287.81189674 183.86968446 287.81195849 C198.68892442 287.81265988 213.50815578 287.80667475 228.32739289 287.79780528 C232.76786854 287.79526634 237.20834265 287.79387312 241.64881898 287.7934734 C250.75934369 287.79262982 259.86984882 287.78667695 268.98036194 287.77167606 C269.64958516 287.77058054 270.31880838 287.76948503 271.00831109 287.76835631 C293.6029455 287.72821827 316.18620993 287.44240149 338.77576065 286.96260452 C353.8810932 286.64667791 368.96634478 286.57960618 384.07314682 286.82699394 C396.64672059 287.02356132 396.64672059 287.02356132 408.61610413 283.62641239 C409.87263132 281.12916867 409.87263132 281.12916867 410.61610413 278.62641239 C412.74110413 277.81391239 412.74110413 277.81391239 414.61610413 277.62641239 C414.61610413 278.28641239 414.61610413 278.94641239 414.61610413 279.62641239 C417.13974401 279.00107864 417.13974401 279.00107864 419.61610413 277.62641239 C419.78110413 276.80141239 419.94610413 275.97641239 420.11610413 275.12641239 C420.28110413 274.30141239 420.44610413 273.47641239 420.61610413 272.62641239 C423.05360413 271.43891239 423.05360413 271.43891239 425.61610413 270.62641239 C427.87630311 268.80104135 427.87630311 268.80104135 427.80360413 266.12641239 C427.7750939 263.62850283 427.7750939 263.62850283 426.61610413 261.62641239 C428.26610413 261.95641239 429.91610413 262.28641239 431.61610413 262.62641239 C431.90485413 261.34766239 432.19360413 260.06891239 432.49110413 258.75141239 C432.73473694 257.67246708 432.73473694 257.67246708 432.98329163 256.57172489 C433.19211975 255.59977177 433.40094788 254.62781864 433.61610413 253.62641239 C433.85958163 252.72248753 433.85958163 252.72248753 434.10797787 251.80030155 C436.2351154 243.02808765 435.8735264 234.1259613 435.82728577 225.16547489 C435.82508112 223.30113653 435.82377835 221.43679692 435.82330322 219.57245731 C435.82037804 215.56642008 435.81115609 211.56046509 435.79699898 207.55445194 C435.77454692 201.17398041 435.76660871 194.7935386 435.76049805 188.41303349 C435.74912068 178.27066309 435.7284238 168.1283371 435.70360035 157.98599148 C435.65949503 139.95797324 435.62569752 121.92994344 435.6033563 103.90188503 C435.59512732 97.60811676 435.58114158 91.31439737 435.56250542 85.02065182 C435.48860061 58.53995231 435.83989204 32.09603789 436.61610413 5.62641239 C432.43904317 3.60808682 429.14491041 3.43013553 424.53408813 3.53214359 C423.0918998 3.55266624 421.64967551 3.57076863 420.20742989 3.58676624 C419.07648679 3.60086104 419.07648679 3.60086104 417.92269635 3.61524057 C414.08508249 3.63382779 410.25248906 3.52232766 406.41674805 3.41233158 C404.73472458 3.36705214 403.05269227 3.32210039 401.3706522 3.27744198 C400.49169918 3.25402351 399.61274616 3.23060504 398.70715821 3.20647693 C368.40390741 2.42388141 338.09759762 2.47833133 307.78685308 2.49111294 C302.15071669 2.49342387 296.51458331 2.49367058 290.87844658 2.49259663 C290.06519325 2.49244339 289.25193992 2.49229016 288.41404254 2.49213228 C286.76056123 2.49181247 285.10707992 2.49148826 283.45359861 2.49115969 C268.12488599 2.48834013 252.79617946 2.4915394 237.46746784 2.49696006 C224.33903177 2.50145832 211.21060451 2.50062072 198.08216858 2.4960413 C182.73399188 2.49068991 167.38582039 2.4885799 152.0376429 2.49165356 C150.40341087 2.49197205 148.76917885 2.49228643 147.13494682 2.49259663 C146.3313246 2.4927509 145.52770238 2.49290518 144.69972797 2.49306413 C139.05588591 2.49392511 133.41204719 2.49247614 127.76820564 2.49011707 C120.91438234 2.48731411 114.06057049 2.48806927 107.20674849 2.49339782 C103.71602084 2.49602293 100.22531231 2.49705955 96.73458481 2.49374866 C92.9515876 2.49102151 89.16864439 2.49443708 85.38565063 2.49942875 C84.28569734 2.49719803 83.18574404 2.49496731 82.05245882 2.49266899 C76.78702755 2.50617497 71.80735348 2.75565116 66.61610413 3.62641239 C64.27162322 3.7087693 61.9251618 3.74430635 59.57923889 3.73993778 C58.91497391 3.74008381 58.25070892 3.74022984 57.5663147 3.74038029 C55.39667864 3.73969024 53.22713121 3.73194093 51.05751038 3.72406864 C49.54293871 3.72220123 48.02836643 3.72077885 46.51379395 3.71978092 C42.54692386 3.7159812 38.58009097 3.7061729 34.61323547 3.69507694 C30.55755618 3.68480786 26.50187082 3.68027157 22.44618225 3.67524052 C14.50280589 3.66454812 6.55945965 3.6475026 -1.38389587 3.62641239 C-1.71389587 4.28641239 -2.04389587 4.94641239 -2.38389587 5.62641239 C-2.38389587 4.96641239 -2.38389587 4.30641239 -2.38389587 3.62641239 C-4.44380065 4.92108916 -4.44380065 4.92108916 -6.38389587 6.62641239 C-6.38389587 7.61641239 -6.38389587 8.60641239 -6.38389587 9.62641239 C-5.72389587 9.62641239 -5.06389587 9.62641239 -4.38389587 9.62641239 C-4.05389587 10.61641239 -3.72389587 11.60641239 -3.38389587 12.62641239 C-4.37389587 12.95641239 -5.36389587 13.28641239 -6.38389587 13.62641239 C-6.71389587 13.29641239 -7.04389587 12.96641239 -7.38389587 12.62641239 C-8.3217567 17.67650834 -8.3217567 17.67650834 -7.38389587 22.62641239 C-7.47078918 24.45807971 -7.62482407 26.28680123 -7.81358337 28.11078739 C-8.50664511 36.18239385 -8.53401045 44.20443423 -8.51426697 52.29926395 C-8.50910604 54.77556958 -8.51413217 57.25167635 -8.52061462 59.72797489 C-8.52390907 68.49932683 -8.40905714 77.26338708 -8.15684509 86.03095341 C-7.31998285 115.36272538 -7.22884055 144.67879475 -7.25532734 174.02153146 C-7.25972182 179.47277018 -7.25652553 184.92398624 -7.25169837 190.37522358 C-7.24662947 196.34203869 -7.24714117 202.30884356 -7.25008011 208.27566051 C-7.25074636 210.78877676 -7.24993151 213.30189386 -7.24760056 215.81500912 C-7.24507866 219.28268463 -7.24890275 222.75029455 -7.25450134 226.21796513 C-7.25247711 227.24974888 -7.25045288 228.28153263 -7.24836731 229.34458256 C-7.25118713 230.28095051 -7.25400696 231.21731846 -7.25691223 232.1820612 C-7.25728926 232.99713862 -7.25766628 233.81221605 -7.25805473 234.6519928 C-7.38389587 236.62641239 -7.38389587 236.62641239 -8.38389587 238.62641239 C-8.61562414 241.17256248 -8.80284117 243.70037464 -8.94639587 246.25141239 C-8.98957947 246.95781864 -9.03276306 247.66422489 -9.07725525 248.39203739 C-9.18334338 250.13659776 -9.28412476 251.88147936 -9.38389587 253.62641239 C-9.71389587 253.62641239 -10.04389587 253.62641239 -10.38389587 253.62641239 C-11.48074952 248.3012748 -11.53215007 243.16076526 -11.53106689 237.75127506 C-11.53474358 236.76145667 -11.53842027 235.77163828 -11.54220837 234.75182539 C-11.55321458 231.43779897 -11.55708376 228.12380394 -11.56089783 224.809762 C-11.56716448 222.43278244 -11.57381146 220.05580385 -11.58081055 217.67882633 C-11.60000562 210.55184671 -11.61063043 203.42486657 -11.61953834 196.29786834 C-11.62392696 192.93984326 -11.62929197 189.58181974 -11.63452721 186.22379589 C-11.65152775 175.06054703 -11.66602443 163.89729912 -11.67327595 152.73403931 C-11.67518573 149.84098592 -11.67710609 146.94793254 -11.67906189 144.05487919 C-11.67954563 143.33585498 -11.68002937 142.61683076 -11.68052777 141.87601794 C-11.68883793 130.21411451 -11.71419664 118.55231332 -11.74664257 106.89045458 C-11.77969422 94.91323699 -11.79772265 82.93607145 -11.80092019 70.958808 C-11.80308616 64.23550217 -11.81184832 57.51234581 -11.83738136 50.78908443 C-11.86058549 44.46975687 -11.86492615 38.15069889 -11.85461998 31.83133984 C-11.85412275 29.50973078 -11.86049804 27.18810877 -11.87417603 24.86653996 C-11.89177968 21.70222187 -11.8848454 18.53888357 -11.87164307 15.37456608 C-11.88261231 14.45161352 -11.89358156 13.52866095 -11.90488321 12.57774013 C-11.89630231 11.72850335 -11.88772142 10.87926658 -11.8788805 10.00429535 C-11.87985731 9.27430783 -11.88083412 8.54432031 -11.88184053 7.79221195 C-10.34307512 1.09938489 -6.20247407 -0.10663993 0 0 Z " fill="#D1ADF7" transform="translate(30.383895874023438,178.3735876083374)"/>
<path d="M0 0 C5.70175886 2.12670105 9.09892763 5.66202685 12 11 C13.08384373 14.25153119 13.14654671 16.66646615 13.17700195 20.08862305 C13.19625481 21.97154305 13.19625481 21.97154305 13.21589661 23.89250183 C13.2240663 25.26557011 13.23150959 26.63864287 13.23828125 28.01171875 C13.24235678 28.70506632 13.2464323 29.39841389 13.25063133 30.11277199 C13.27147928 33.78538335 13.28578432 37.45795753 13.29516602 41.13061523 C13.30620507 44.90890883 13.34057866 48.68660937 13.38033772 52.46469402 C13.40659153 55.3825229 13.41486573 58.30021261 13.41844749 61.21814919 C13.42329389 62.60991211 13.434852 64.00166964 13.45348549 65.39331627 C13.56579367 74.33988718 13.47477286 81.33369989 6.9921875 88.09375 C1.31009965 91.86783049 -3.20525996 93.15951195 -10 92 C-15.72937874 89.94607177 -19.54534383 86.47888237 -22.61927795 81.24058533 C-24.12459911 77.70756312 -24.38561547 75.28600567 -24.40405273 71.46313477 C-24.41673691 70.18483292 -24.42942108 68.90653107 -24.44248962 67.5894928 C-24.44043791 66.20679562 -24.43744966 64.82409957 -24.43359375 63.44140625 C-24.43816013 62.00943251 -24.44346705 60.57746096 -24.44947815 59.14549255 C-24.45839113 56.15053379 -24.45600717 53.15584193 -24.44604492 50.16088867 C-24.43455887 46.33654055 -24.45476912 42.51311632 -24.48396206 38.6888895 C-24.50237244 35.73331419 -24.50202206 32.77795831 -24.49632454 29.82234001 C-24.49617191 28.41303143 -24.50216815 27.00370743 -24.51461601 25.59445381 C-24.58093004 16.85660906 -24.52902022 10.83239956 -18.3671875 4.2578125 C-12.20494909 -0.42032661 -7.70140516 -0.84927776 0 0 Z " fill="#DBDBDC" transform="translate(127,5)"/>
<path d="M0 0 C4.36775158 3.14884416 7.96773395 6.77820184 9.6875 11.9375 C9.81400012 13.84208517 9.88478066 15.75056858 9.92456055 17.65893555 C9.96416145 19.42173103 9.96416145 19.42173103 10.00456238 21.22013855 C10.02754898 22.49198502 10.05053558 23.76383148 10.07421875 25.07421875 C10.09974319 26.38276321 10.12526764 27.69130768 10.15156555 29.039505 C10.20452734 31.81266248 10.25343855 34.58585976 10.30004883 37.35913086 C10.36018793 40.89529001 10.4344714 44.43099452 10.51242352 47.96679974 C10.58427992 51.35661351 10.64074169 54.74664807 10.69921875 58.13671875 C10.72827805 59.39844406 10.75733734 60.66016937 10.78727722 61.96012878 C10.90996117 70.58326094 10.73634705 78.354251 5.2265625 85.39453125 C1.22522868 89.40602074 -3.31907412 91.14799289 -8.9375 91.375 C-15.27579699 91.01684281 -18.89572507 88.60673557 -23.125 84 C-27.10897608 79.43557707 -27.43545175 75.89332467 -27.47363281 69.91894531 C-27.48324036 68.70378235 -27.4928479 67.48861938 -27.50274658 66.2366333 C-27.50699646 64.92620056 -27.51124634 63.61576782 -27.515625 62.265625 C-27.51845238 61.59525963 -27.52127975 60.92489426 -27.52419281 60.23421478 C-27.53916211 56.68478504 -27.54840505 53.13539568 -27.55273438 49.5859375 C-27.55820733 45.93669109 -27.58221649 42.28782 -27.61070633 38.63869095 C-27.62942266 35.81779944 -27.63454312 32.9969966 -27.63607025 30.17604828 C-27.64053233 28.18203905 -27.65913614 26.18807745 -27.67803955 24.19415283 C-27.65968663 16.68583724 -27.62640713 9.90665695 -22.59375 3.87890625 C-22.0059375 3.42386719 -21.418125 2.96882812 -20.8125 2.5 C-19.93078125 1.79037109 -19.93078125 1.79037109 -19.03125 1.06640625 C-13.62686347 -2.48329309 -5.91493846 -1.89724441 0 0 Z " fill="#DBDADC" transform="translate(376.3125,6.0625)"/>
<path d="M0 0 C0.71110343 -0.00911937 1.42220687 -0.01823873 2.15485889 -0.02763444 C4.13569636 -0.0532057 6.11640524 -0.08823622 8.09708691 -0.12388897 C17.03235507 0.35801196 17.03235507 0.35801196 19.74732018 3.07297707 C20.6358688 8.7004517 20.79233407 14.19693064 20.74732018 19.88547707 C20.69717667 29.8990182 20.66896054 38.87150723 25.00513268 48.11203957 C25.37251549 49.08270363 25.37251549 49.08270363 25.74732018 50.07297707 C25.41732018 50.73297707 25.08732018 51.39297707 24.74732018 52.07297707 C23.92456345 50.53675972 23.11459441 48.99369075 22.30982018 47.44797707 C21.63112877 46.16020363 21.63112877 46.16020363 20.93872643 44.84641457 C18.67407416 39.57460109 18.59808353 34.19982335 18.46607018 28.52219582 C18.428319 27.08795078 18.39055832 25.653706 18.35278893 24.21946144 C18.29892197 21.9765698 18.24670257 19.73364591 18.19507408 17.49070168 C18.14352498 15.31357977 18.08626533 13.13666211 18.02857018 10.95969582 C17.99827721 9.66249611 17.96798424 8.3652964 17.9367733 7.02878761 C18.08130415 4.18681789 18.08130415 4.18681789 16.74732018 3.07297707 C14.58305844 2.97602389 12.41556764 2.95110942 10.24913597 2.95272255 C9.21879914 2.95144091 9.21879914 2.95144091 8.16764742 2.95013338 C5.84904562 2.94847662 3.530515 2.95400313 1.21191978 2.95945168 C-0.44337907 2.95973353 -2.09867804 2.95957585 -3.75397682 2.95900917 C-8.26204915 2.95872113 -12.77009511 2.96461888 -17.27816129 2.97158313 C-21.9840572 2.97781562 -26.68995364 2.97842038 -31.39585304 2.97960854 C-40.31356617 2.98272216 -49.23126709 2.99093597 -58.14897484 3.00095803 C-68.2987428 3.01211819 -78.44851132 3.01762937 -88.59828389 3.02265346 C-109.48308935 3.03311856 -130.36788382 3.05071861 -151.25267982 3.07297707 C-151.09100319 3.99918861 -150.92932655 4.92540016 -150.76275063 5.87967873 C-149.86549902 11.49692258 -150.02628619 17.14564578 -150.00267982 22.82297707 C-149.97174232 24.65989113 -149.97174232 24.65989113 -149.94017982 26.53391457 C-149.89085033 38.05235047 -152.12030924 46.78338322 -158.75267982 56.19797707 C-159.36111732 57.06680519 -159.96955482 57.93563332 -160.59642982 58.83078957 C-163.8222607 63.1978342 -167.01779602 64.26029204 -172.00267982 66.07297707 C-174.40971465 66.85729068 -174.40971465 66.85729068 -175.25267982 69.07297707 C-175.91267982 69.07297707 -176.57267982 69.07297707 -177.25267982 69.07297707 C-177.58267982 69.73297707 -177.91267982 70.39297707 -178.25267982 71.07297707 C-182.88804255 72.36656667 -185.83158369 71.86246836 -190.25267982 70.07297707 C-190.58267982 70.73297707 -190.91267982 71.39297707 -191.25267982 72.07297707 C-191.25267982 71.41297707 -191.25267982 70.75297707 -191.25267982 70.07297707 C-191.87014076 70.13098488 -192.4876017 70.18899269 -193.12377357 70.24875832 C-199.32889534 70.57932036 -203.10238802 69.6024733 -208.34252357 66.26438332 C-210.34391631 64.91270575 -210.34391631 64.91270575 -213.25267982 64.07297707 C-213.25267982 63.08297707 -213.25267982 62.09297707 -213.25267982 61.07297707 C-214.30455482 60.79453957 -214.30455482 60.79453957 -215.37767982 60.51047707 C-220.64103034 57.87880181 -224.00303018 53.61278473 -225.89330482 48.04563332 C-228.23128701 39.78152625 -227.7921863 31.03054054 -227.87767982 22.51047707 C-227.91419461 19.87732857 -227.95469685 17.24432863 -228.00032997 14.6113224 C-228.02753783 12.98212929 -228.04889732 11.35282601 -228.06386757 9.7234745 C-227.7757447 6.09873642 -227.7757447 6.09873642 -229.25267982 3.07297707 C-231.92326833 2.93182545 -234.5770022 3.03050599 -237.25267982 3.07297707 C-237.25267982 3.40297707 -237.25267982 3.73297707 -237.25267982 4.07297707 C-238.48244545 4.11035988 -239.71221107 4.14774269 -240.97924232 4.18625832 C-242.61208384 4.25194734 -244.24489501 4.31839366 -245.87767982 4.38547707 C-246.68592201 4.40803566 -247.4941642 4.43059425 -248.32689857 4.45383644 C-253.3677457 4.67924017 -256.83742944 5.42256172 -261.25267982 8.07297707 C-262.09830482 8.54477394 -262.94392982 9.01657082 -263.81517982 9.50266457 C-273.93100511 15.43013287 -273.93100511 15.43013287 -280.25267982 25.07297707 C-281.3982913 27.59332231 -282.3318975 29.15714584 -284.25267982 31.19797707 C-286.71185215 34.73303728 -287.19329786 37.7632368 -287.85814857 41.96360207 C-288.25267982 44.07297707 -288.25267982 44.07297707 -289.25267982 45.07297707 C-290.32665981 53.1265118 -290.44040242 61.28833205 -290.56908607 69.40110207 C-290.58986717 70.51612099 -290.61064827 71.63113991 -290.6320591 72.77994728 C-290.69673235 76.29423618 -290.75605164 79.80859095 -290.81517982 83.32297707 C-290.85844352 85.72532726 -290.90206011 88.12767112 -290.9460392 90.53000832 C-291.05232763 96.37759771 -291.15423665 102.22525061 -291.25267982 108.07297707 C-291.58267982 108.07297707 -291.91267982 108.07297707 -292.25267982 108.07297707 C-292.34596679 99.69222207 -292.41673872 91.31168934 -292.45992851 82.93054104 C-292.48067293 79.03748288 -292.50874472 75.14478375 -292.55443764 71.25193214 C-292.5983717 67.48471754 -292.62191534 63.717845 -292.6321888 59.95039368 C-292.639496 58.52367402 -292.6537612 57.09696993 -292.67560005 55.67039871 C-292.89265291 40.88392582 -289.82933645 27.62099993 -279.81517982 16.32297707 C-278.96955482 15.58047707 -278.12392982 14.83797707 -277.25267982 14.07297707 C-276.75252357 13.59344582 -276.25236732 13.11391457 -275.73705482 12.61985207 C-265.37745542 3.03480215 -254.10820113 0.72898494 -240.44017982 0.82297707 C-238.72411537 0.8113755 -238.72411537 0.8113755 -236.97338295 0.79953957 C-235.88348061 0.80211769 -234.79357826 0.80469582 -233.67064857 0.80735207 C-232.18214394 0.81073586 -232.18214394 0.81073586 -230.6635685 0.814188 C-228.25267982 1.07297707 -228.25267982 1.07297707 -226.25267982 3.07297707 C-225.98143959 6.17063332 -225.98143959 6.17063332 -225.94408607 10.13547707 C-225.91888996 11.58730337 -225.89349257 13.03912619 -225.8679142 14.49094582 C-225.83939064 16.77039298 -225.81537311 19.04977818 -225.796381 21.32932472 C-225.66705203 34.32191215 -224.74163476 46.05963141 -215.46752357 55.98313332 C-207.06647937 63.84971745 -197.85377837 66.50567729 -186.50658607 66.33860207 C-175.91321334 65.47383694 -168.13638633 61.10607309 -161.25267982 53.07297707 C-153.26227793 41.41639077 -153.91984577 27.32186189 -153.7741642 13.75266457 C-153.74773842 12.54868019 -153.72131264 11.34469582 -153.69408607 10.10422707 C-153.68063148 9.01690285 -153.6671769 7.92957863 -153.65331459 6.80930519 C-153.25267982 4.07297707 -153.25267982 4.07297707 -152.08987904 2.42687702 C-149.50170425 0.51955543 -147.65588964 0.68825033 -144.45685768 0.67424965 C-143.24738976 0.6617115 -142.03792183 0.64917336 -140.79180336 0.63625526 C-139.44909069 0.63742948 -138.10637824 0.63888869 -136.76366615 0.64060402 C-135.35076984 0.63158769 -133.93788138 0.62126078 -132.52500343 0.60972023 C-128.68123369 0.58206711 -124.83761195 0.57285136 -120.99375558 0.56686616 C-116.95994318 0.55747613 -112.92624061 0.53125897 -108.89249611 0.50686073 C-101.23349723 0.46311046 -93.57451953 0.43463058 -85.91543359 0.41153735 C-77.26312867 0.3846961 -68.61093921 0.34067102 -59.95871508 0.29524863 C-46.44712404 0.2247844 -32.93551642 0.16393288 -19.4238224 0.11716652 C-18.12085213 0.11252892 -16.81788185 0.10789131 -15.47542763 0.10311317 C-12.99200001 0.09498471 -10.50856011 0.08992587 -8.02511978 0.08819962 C-5.34836724 0.07739838 -2.67598308 0.04834237 0 0 Z " fill="#AFCFFC" transform="translate(311.2526798248291,46.92702293395996)"/>
<path d="M0 0 C1.17152367 -0.00087616 1.17152367 -0.00087616 2.36671448 -0.00177002 C4.93723663 0.00100722 7.50658581 0.03208081 10.0769043 0.06347656 C11.86337145 0.07094027 13.6498468 0.07663259 15.43632507 0.08062744 C20.13008369 0.09587364 24.82334437 0.13514659 29.51690674 0.17944336 C34.30962387 0.22041802 39.10242174 0.23864314 43.89526367 0.25878906 C53.29326847 0.30164192 62.69090429 0.36988089 72.08862305 0.45410156 C72.08862305 0.78410156 72.08862305 1.11410156 72.08862305 1.45410156 C67.36095785 2.21558491 62.83833587 2.57654051 58.05175781 2.56762695 C57.38749283 2.56777298 56.72322784 2.56791901 56.03883362 2.56806946 C53.86919756 2.56737941 51.69965013 2.5596301 49.5300293 2.55175781 C48.01545763 2.5498904 46.50088536 2.54846802 44.98631287 2.54747009 C41.01944278 2.54367037 37.05260989 2.53386207 33.08575439 2.52276611 C29.0300751 2.51249703 24.97438974 2.50796074 20.91870117 2.50292969 C12.97532482 2.49223729 5.03197857 2.47519177 -2.91137695 2.45410156 C-3.24137695 3.11410156 -3.57137695 3.77410156 -3.91137695 4.45410156 C-3.91137695 3.79410156 -3.91137695 3.13410156 -3.91137695 2.45410156 C-5.97128173 3.74877833 -5.97128173 3.74877833 -7.91137695 5.45410156 C-7.91137695 6.44410156 -7.91137695 7.43410156 -7.91137695 8.45410156 C-7.25137695 8.45410156 -6.59137695 8.45410156 -5.91137695 8.45410156 C-5.58137695 9.44410156 -5.25137695 10.43410156 -4.91137695 11.45410156 C-5.90137695 11.78410156 -6.89137695 12.11410156 -7.91137695 12.45410156 C-8.24137695 12.12410156 -8.57137695 11.79410156 -8.91137695 11.45410156 C-9.84923778 16.50419751 -9.84923778 16.50419751 -8.91137695 21.45410156 C-8.99827026 23.28576888 -9.15230515 25.1144904 -9.34106445 26.93847656 C-10.03412619 35.01008302 -10.06149153 43.0321234 -10.04174805 51.12695312 C-10.03658712 53.60325875 -10.04161325 56.07936552 -10.0480957 58.55566406 C-10.05139015 67.327016 -9.93653822 76.09107625 -9.68432617 84.85864258 C-8.84746393 114.19041455 -8.75632163 143.50648392 -8.78280842 172.84922063 C-8.7872029 178.30045935 -8.78400661 183.75167542 -8.77917945 189.20291275 C-8.77411055 195.16972786 -8.77462225 201.13653273 -8.77756119 207.10334969 C-8.77822744 209.61646593 -8.77741258 212.12958303 -8.77508163 214.64269829 C-8.77255974 218.1103738 -8.77638383 221.57798372 -8.78198242 225.0456543 C-8.77995819 226.07743805 -8.77793396 227.1092218 -8.77584839 228.17227173 C-8.77866821 229.10863968 -8.78148804 230.04500763 -8.78439331 231.00975037 C-8.78477034 231.8248278 -8.78514736 232.63990522 -8.78553581 233.47968197 C-8.91137695 235.45410156 -8.91137695 235.45410156 -9.91137695 237.45410156 C-10.14310522 240.00025165 -10.33032225 242.52806381 -10.47387695 245.07910156 C-10.51706055 245.78550781 -10.56024414 246.49191406 -10.60473633 247.21972656 C-10.71082446 248.96428693 -10.81160584 250.70916853 -10.91137695 252.45410156 C-11.24137695 252.45410156 -11.57137695 252.45410156 -11.91137695 252.45410156 C-13.00775916 247.12762803 -13.06235402 241.98317283 -13.0652771 236.57223511 C-13.06965935 235.58171115 -13.07404161 234.59118719 -13.07855666 233.57064736 C-13.09190288 230.25429027 -13.09811394 226.93795973 -13.10424805 223.62158203 C-13.11215184 221.24297975 -13.12042096 218.86437865 -13.12902832 216.48577881 C-13.15294194 209.35435934 -13.1681627 202.22293469 -13.18108839 195.09148854 C-13.18480342 193.07726874 -13.18877633 191.06304963 -13.19284105 189.04883051 C-13.21806465 176.53586609 -13.24011329 164.02290051 -13.2525692 151.50991631 C-13.25549874 148.61582307 -13.25846045 145.72172987 -13.26147461 142.82763672 C-13.26222066 142.10835019 -13.26296671 141.38906367 -13.26373537 140.64798059 C-13.27640704 128.97890979 -13.30966016 117.30999072 -13.35127644 105.64099096 C-13.39366206 93.65812917 -13.41725969 81.67534525 -13.42248976 69.69240868 C-13.42590612 62.96518309 -13.43768878 56.23819537 -13.4705925 49.51104355 C-13.50054949 43.18921612 -13.50702912 36.86780449 -13.49520874 30.54592133 C-13.49498702 28.22227304 -13.50337281 25.89860612 -13.52086258 23.57502365 C-13.54339434 20.4101749 -13.53533329 17.24685476 -13.51937866 14.08200073 C-13.53326075 13.15613533 -13.54714284 12.23026993 -13.56144559 11.27634799 C-13.48427388 5.0917311 -13.48427388 5.0917311 -10.60077572 1.88242149 C-7.04669247 -0.00512601 -3.92537899 -0.07732176 0 0 Z " fill="#96B2F6" transform="translate(31.911376953125,179.5458984375)"/>
<path d="M0 0 C0.33 0 0.66 0 1 0 C1.02317605 8.27547729 1.04094195 16.550941 1.05181217 24.82644272 C1.05702947 28.66913754 1.06410622 32.51181015 1.07543945 36.35449219 C1.08630927 40.06327788 1.09228553 43.7720422 1.09487724 47.48084259 C1.0967241 48.89541205 1.10033053 50.30998035 1.10573006 51.72454071 C1.11299468 53.70664834 1.11340852 55.6887775 1.11352539 57.67089844 C1.115746 58.79896912 1.11796661 59.92703979 1.12025452 61.08929443 C0.92874673 65.72465278 0.92874673 65.72465278 0 68 C-2.71208138 68.90402713 -4.25697229 69.12453012 -7.03922558 69.12304783 C-7.86379668 69.12503888 -8.68836779 69.12702993 -9.5379259 69.12908131 C-10.89637739 69.12471205 -10.89637739 69.12471205 -12.28227234 69.12025452 C-13.72556946 69.12153615 -13.72556946 69.12153615 -15.19802409 69.12284368 C-18.43631534 69.12449655 -21.67455529 69.11898023 -24.9128418 69.11352539 C-27.22852579 69.11324345 -29.54420986 69.11340138 -31.8598938 69.1139679 C-38.15910982 69.11425561 -44.45830692 69.1083631 -50.75751853 69.10139394 C-57.33588805 69.09515605 -63.91425798 69.09455625 -70.49263 69.09336853 C-81.53814015 69.090777 -92.58364364 69.08435796 -103.62915039 69.07543945 C-115.0067542 69.06626234 -126.38435613 69.05918297 -137.76196289 69.05493164 C-138.46311868 69.05466892 -139.16427447 69.05440619 -139.88667741 69.05413551 C-143.40412224 69.05283048 -146.92156708 69.05156677 -150.43901193 69.05032361 C-179.62601248 69.0399546 -208.81300615 69.02226516 -238 69 C-238 68.67 -238 68.34 -238 68 C-189.26636406 67.14735711 -140.53548432 66.73887513 -91.79540336 66.48259127 C-82.18351957 66.43191954 -72.57165779 66.37751137 -62.95979559 66.32291877 C-43.30655099 66.21137116 -23.65328537 66.10410582 -4 66 C-3.66430703 64.37548581 -3.3315204 62.75037083 -3 61.125 C-2.814375 60.22007812 -2.62875 59.31515625 -2.4375 58.3828125 C-1.93980405 56.07592097 -1.93980405 56.07592097 -2 54 C-1.34 54 -0.68 54 0 54 C-0.03029297 53.19481934 -0.06058594 52.38963867 -0.09179688 51.56005859 C-0.20567711 48.4997463 -0.31719559 45.43935847 -0.42724609 42.37890625 C-0.4979223 40.43222726 -0.57118759 38.48564281 -0.64453125 36.5390625 C-1.08150377 24.3038319 -1.39226145 12.18228772 0 0 Z " fill="#7D5AE0" transform="translate(467,90)"/>
<path d="M0 0 C1.71606445 -0.01160156 1.71606445 -0.01160156 3.46679688 -0.0234375 C4.55669922 -0.02085938 5.64660156 -0.01828125 6.76953125 -0.015625 C8.25803589 -0.01224121 8.25803589 -0.01224121 9.77661133 -0.00878906 C12.1875 0.25 12.1875 0.25 14.1875 2.25 C14.45874023 5.34765625 14.45874023 5.34765625 14.49609375 9.3125 C14.52128986 10.76432631 14.54668726 12.21614913 14.57226562 13.66796875 C14.60078919 15.94741592 14.62480672 18.22680111 14.64379883 20.50634766 C14.72991634 29.15784536 15.02209103 37.07252233 18.1875 45.25 C18.7753125 47.044375 18.7753125 47.044375 19.375 48.875 C19.7771875 50.050625 19.7771875 50.050625 20.1875 51.25 C15.72299813 47.24734315 13.1216402 43.15373971 12.77099609 37.09643555 C12.73665002 35.52677803 12.71734457 33.95673892 12.7109375 32.38671875 C12.69535797 31.5541304 12.67977844 30.72154205 12.66372681 29.86372375 C12.61643547 27.2216577 12.58850221 24.57985391 12.5625 21.9375 C12.52602515 19.27747568 12.48548797 16.61760071 12.43984985 13.9577179 C12.41258635 12.30626701 12.39125111 10.65470589 12.37631226 9.00309753 C12.67384039 5.32426023 12.67384039 5.32426023 11.1875 2.25 C8.51691149 2.10884839 5.86317762 2.20752893 3.1875 2.25 C3.1875 2.58 3.1875 2.91 3.1875 3.25 C1.95773438 3.28738281 0.72796875 3.32476562 -0.5390625 3.36328125 C-2.17190401 3.42897028 -3.80471518 3.49541659 -5.4375 3.5625 C-6.24574219 3.58505859 -7.05398437 3.60761719 -7.88671875 3.63085938 C-12.92756588 3.85626311 -16.39724962 4.59958465 -20.8125 7.25 C-21.658125 7.72179688 -22.50375 8.19359375 -23.375 8.6796875 C-33.49082528 14.6071558 -33.49082528 14.6071558 -39.8125 24.25 C-40.95811148 26.77034525 -41.89171767 28.33416878 -43.8125 30.375 C-46.27167232 33.91006021 -46.75311803 36.94025973 -47.41796875 41.140625 C-47.8125 43.25 -47.8125 43.25 -48.8125 44.25 C-49.88647999 52.30353473 -50.00022259 60.46535498 -50.12890625 68.578125 C-50.14968735 69.69314392 -50.17046844 70.80816284 -50.19187927 71.95697021 C-50.25655253 75.47125912 -50.31587182 78.98561388 -50.375 82.5 C-50.41826369 84.90235019 -50.46188029 87.30469405 -50.50585938 89.70703125 C-50.61214781 95.55462064 -50.71405683 101.40227355 -50.8125 107.25 C-51.1425 107.25 -51.4725 107.25 -51.8125 107.25 C-51.90578697 98.869245 -51.9765589 90.48871227 -52.01974869 82.10756397 C-52.0404931 78.21450582 -52.06856489 74.32180669 -52.11425781 70.42895508 C-52.15819188 66.66174047 -52.18173552 62.89486793 -52.19200897 59.12741661 C-52.19931618 57.70069695 -52.21358138 56.27399287 -52.23542023 54.84742165 C-52.45247309 40.06094875 -49.38915663 26.79802286 -39.375 15.5 C-38.529375 14.7575 -37.68375 14.015 -36.8125 13.25 C-36.31234375 12.77046875 -35.8121875 12.2909375 -35.296875 11.796875 C-24.93727559 2.21182508 -13.66802131 -0.09399212 0 0 Z " fill="#A0E8FA" transform="translate(70.8125,47.75)"/>
<path d="M0 0 C0.33 0 0.66 0 1 0 C0.99476318 0.61520508 0.98952637 1.23041016 0.98413086 1.86425781 C0.96330629 4.65949476 0.95032241 7.45471536 0.9375 10.25 C0.92912109 11.21808594 0.92074219 12.18617187 0.91210938 13.18359375 C0.90888672 14.11816406 0.90566406 15.05273438 0.90234375 16.015625 C0.89710693 16.87446289 0.89187012 17.73330078 0.88647461 18.61816406 C0.91644234 20.95051199 0.91644234 20.95051199 1.50439453 22.94970703 C2.14811552 25.61274589 2.07587037 28.05111645 2.02734375 30.7890625 C2.01509766 31.89507812 2.00285156 33.00109375 1.99023438 34.140625 C1.95495897 36.47141456 1.91587086 38.80214941 1.87304688 41.1328125 C1.86208984 42.23625 1.85113281 43.3396875 1.83984375 44.4765625 C1.82300537 45.48799316 1.80616699 46.49942383 1.78881836 47.54150391 C1.74954097 50.17887143 1.74954097 50.17887143 4 52 C4.8971875 51.505 4.8971875 51.505 5.8125 51 C8 50 8 50 11 50 C11 50.66 11 51.32 11 52 C10.01 52.495 10.01 52.495 9 53 C9 53.99 9 54.98 9 56 C74.67 56 140.34 56 208 56 C208 56.33 208 56.66 208 57 C181.3404108 57.04668307 154.68082771 57.08197071 128.0212059 57.10362434 C115.6431924 57.11394491 103.26520426 57.12802015 90.88720703 57.15087891 C80.10084112 57.17078889 69.31449357 57.18371076 58.52810979 57.18817699 C52.81474487 57.19078842 47.10143251 57.19694263 41.38808441 57.21146011 C36.01361218 57.22500624 30.63921432 57.22922866 25.26472664 57.22621536 C23.28940744 57.22676686 21.31408582 57.23076192 19.33878136 57.23841095 C16.64696569 57.24832571 13.95543271 57.24598157 11.26361084 57.24050903 C10.08462129 57.24924756 10.08462129 57.24924756 8.88181376 57.25816262 C5.10573356 57.23733788 2.20151863 57.12560991 -1 55 C-1.0252899 47.48861406 -1.04284141 39.97723903 -1.05493164 32.46582031 C-1.05997017 29.90884999 -1.06680107 27.35188257 -1.07543945 24.79492188 C-1.08752602 21.12629483 -1.09323301 17.45770577 -1.09765625 13.7890625 C-1.10539818 12.0655809 -1.10539818 12.0655809 -1.11329651 10.30728149 C-1.11337204 9.2463327 -1.11344757 8.18538391 -1.11352539 7.09228516 C-1.115746 6.15518707 -1.11796661 5.21808899 -1.12025452 4.25259399 C-1 2 -1 2 0 0 Z " fill="#7FA8E8" transform="translate(21,102)"/>
<path d="M0 0 C8.27544831 -0.06952789 16.55077447 -0.12282519 24.82644272 -0.15543652 C28.66923087 -0.17108879 32.5118191 -0.19231873 36.35449219 -0.22631836 C40.06329563 -0.25892795 43.77190684 -0.27685631 47.48084259 -0.28463173 C48.89543941 -0.29017241 50.31002578 -0.30099212 51.72454071 -0.31719017 C53.70655548 -0.33898301 55.6887639 -0.34022556 57.67089844 -0.34057617 C58.79896912 -0.34723801 59.92703979 -0.35389984 61.08929443 -0.36076355 C64.5765666 0.07146178 65.65877582 0.36939919 68 3 C68.61618004 6.18547736 68.52125523 9.35094268 68.48101807 12.58598328 C68.48443577 13.58084977 68.48785347 14.57571627 68.49137473 15.60073024 C68.49798769 18.94984793 68.47592067 22.29817238 68.45410156 25.6472168 C68.45297383 28.04171734 68.4536055 30.43621926 68.45587158 32.83071899 C68.45678381 37.99382449 68.44540466 43.15674907 68.42292023 48.31979942 C68.39043261 55.78471186 68.37999656 63.24952649 68.37496826 70.71450195 C68.3662105 82.82542973 68.33958193 94.93624984 68.30175781 107.04711914 C68.26505014 118.81273865 68.23673231 130.57832894 68.21972656 142.34399414 C68.21815022 143.43157177 68.21815022 143.43157177 68.21654204 144.54112067 C68.21132194 148.1784379 68.2062671 151.81575533 68.20129442 155.45307291 C68.15981741 185.63545903 68.08905892 215.81771458 68 246 C67.67 246 67.34 246 67 246 C65.65615709 208.54751375 65.8461905 171.07618977 65.87143159 133.6059078 C65.87520095 127.35339595 65.87384362 121.10089994 65.86962891 114.84838867 C65.81906627 38.09319153 65.81906627 38.09319153 67 4 C62.79245444 2.19367639 59.79152393 1.80083305 55.1875 1.90625 C53.75654613 1.92709487 52.32554979 1.94514381 50.89453125 1.9609375 C49.72398193 1.97495605 49.72398193 1.97495605 48.52978516 1.98925781 C43.81013456 2.00929879 39.09316415 1.88929956 34.375 1.78125 C33.36783936 1.75893311 32.36067871 1.73661621 31.32299805 1.71362305 C28.21529563 1.64392816 25.10764948 1.57201241 22 1.5 C19.85677452 1.45165901 17.71354537 1.40348082 15.5703125 1.35546875 C10.3801641 1.23885232 5.19007017 1.12004591 0 1 C0 0.67 0 0.34 0 0 Z " fill="#B150DC" transform="translate(400,180)"/>
<path d="M0 0 C0.64691012 -0.00085442 1.29382025 -0.00170885 1.9603337 -0.00258917 C4.13763591 -0.0042421 6.31486182 0.00127436 8.49215698 0.00672913 C10.04908242 0.00701106 11.60600799 0.00685313 13.16293335 0.00628662 C17.39822861 0.0059989 21.63349573 0.01189149 25.86878443 0.01886058 C30.29173294 0.02509838 34.71468205 0.02569825 39.13763428 0.02688599 C47.51699178 0.02999804 55.89633628 0.03820974 64.27568805 0.04823548 C73.81364066 0.05940051 83.35159389 0.06490805 92.8895514 0.06993091 C112.51344151 0.08039245 132.13731992 0.09798946 151.76119995 0.12025452 C151.76119995 0.45025452 151.76119995 0.78025452 151.76119995 1.12025452 C124.15642499 2.24689433 96.5396781 2.44600824 68.91574097 2.6778717 C62.31213744 2.73348382 55.70863918 2.79725696 49.1051302 2.86304665 C43.98288432 2.9129994 38.86060463 2.9581529 33.73830223 3.00188828 C31.30021874 3.02339455 28.86214906 3.04653237 26.42409706 3.07135391 C23.04470483 3.10516714 19.66532208 3.1323725 16.28585815 3.15785217 C14.78925659 3.17491463 14.78925659 3.17491463 13.26242065 3.19232178 C11.882658 3.20071327 11.882658 3.20071327 10.47502136 3.20927429 C9.2832653 3.21977027 9.2832653 3.21977027 8.06743336 3.23047829 C5.55430799 3.11036635 3.22399455 2.61635146 0.76119995 2.12025452 C-1.34700801 2.43877222 -1.34700801 2.43877222 -3.23880005 3.12025452 C-4.22880005 3.45025452 -5.21880005 3.78025452 -6.23880005 4.12025452 C-6.89880005 4.78025452 -7.55880005 5.44025452 -8.23880005 6.12025452 C-8.23880005 4.47025452 -8.23880005 2.82025452 -8.23880005 1.12025452 C-5.43708847 -0.28060127 -3.13537057 -0.00248445 0 0 Z " fill="#5B8CEA" transform="translate(168.23880004882813,48.87974548339844)"/>
<path d="M0 0 C1.32 0.66 2.64 1.32 4 2 C3.91249445 4.22988284 3.80430939 6.45896005 3.6875 8.6875 C3.60048828 10.54955078 3.60048828 10.54955078 3.51171875 12.44921875 C2.98100639 16.13179537 2.08493449 17.97813198 0 21 C-0.47566406 22.04220703 -0.47566406 22.04220703 -0.9609375 23.10546875 C-2.20958436 25.3821369 -3.63476182 26.65132511 -5.625 28.3125 C-6.33527344 28.91449219 -7.04554688 29.51648438 -7.77734375 30.13671875 C-8.87755859 31.05904297 -8.87755859 31.05904297 -10 32 C-11.39937359 33.20423158 -12.79532156 34.41245749 -14.1875 35.625 C-14.84363281 36.19605469 -15.49976563 36.76710938 -16.17578125 37.35546875 C-17.81139875 38.82997618 -19.35021354 40.35011234 -20.875 41.9375 C-23 44 -23 44 -25 44 C-25.33 44.99 -25.66 45.98 -26 47 C-27.84361742 49.45815656 -29.20987998 50.07620178 -32.15234375 51.14453125 C-36.87642165 53.12145516 -39.96323574 56.52205929 -43.4375 60.1875 C-44.07365234 60.84169922 -44.70980469 61.49589844 -45.36523438 62.16992188 C-46.91972888 63.7711681 -48.46404153 65.38099948 -50 67 C-50.66 66.67 -51.32 66.34 -52 66 C-48.87427529 62.84927872 -45.7450669 59.70206864 -42.61279297 56.55786133 C-41.55099139 55.49107703 -40.49009442 54.42339147 -39.43017578 53.35473633 C-34.02900785 47.91021625 -28.61855617 42.5435937 -22.78320312 37.55834961 C-19.79880671 34.95027153 -17.02944618 32.13547967 -14.25 29.3125 C-13.69957031 28.75755859 -13.14914062 28.20261719 -12.58203125 27.63085938 C-12.04449219 27.08880859 -11.50695312 26.54675781 -10.953125 25.98828125 C-10.44330078 25.47604004 -9.93347656 24.96379883 -9.40820312 24.43603516 C-8.17955034 23.18309901 -6.98504135 21.89686232 -5.796875 20.60546875 C-4 19 -4 19 -1 19 C-0.03794912 12.62641289 0.10655578 6.44070471 0 0 Z " fill="#B87DF3" transform="translate(369,239)"/>
<path d="M0 0 C2.28343304 3.22367017 2.14749508 5.9452344 1.5390625 9.765625 C-1.12562456 20.81055976 -7.16373678 32.97082128 -17 39 C-20.89225247 41.27412504 -24.74948751 43.47466594 -29 45 C-29.99 44.67 -30.98 44.34 -32 44 C-31.21625 43.814375 -30.4325 43.62875 -29.625 43.4375 C-26.60623658 42.16038373 -26.60623658 42.16038373 -25.6875 38.375 C-25.460625 37.26125 -25.23375 36.1475 -25 35 C-23.02 34.505 -23.02 34.505 -21 34 C-21 34.66 -21 35.32 -21 36 C-18.47636012 35.37466625 -18.47636012 35.37466625 -16 34 C-15.835 33.175 -15.67 32.35 -15.5 31.5 C-15.335 30.675 -15.17 29.85 -15 29 C-12.5625 27.8125 -12.5625 27.8125 -10 27 C-7.73980102 25.17462896 -7.73980102 25.17462896 -7.8125 22.5 C-7.84101023 20.00209044 -7.84101023 20.00209044 -9 18 C-7.35 18.33 -5.7 18.66 -4 19 C-2.57364259 12.68327435 -1.24702151 6.35450323 0 0 Z " fill="#D25BDE" transform="translate(466,422)"/>
<path d="M0 0 C0.66 0 1.32 0 2 0 C3.43000611 6.1878571 3.22389324 12.36640093 3.25 18.6875 C3.270625 19.91662109 3.29125 21.14574219 3.3125 22.41210938 C3.36157068 33.91305116 1.10915563 42.63944482 -5.375 52.125 C-5.96023437 52.99382812 -6.54546875 53.86265625 -7.1484375 54.7578125 C-9.00237658 57.00287797 -10.32143959 57.94981552 -13 59 C-12.6529655 55.87668952 -11.97586453 54.97748941 -9.62109375 52.78125 C-6.68529566 49.66606633 -5.61907843 47.21916927 -4.25 43.1875 C-3.84265625 42.02605469 -3.4353125 40.86460938 -3.015625 39.66796875 C-0.64232464 31.09670323 -0.71149969 22.33985887 -0.4375 13.5 C-0.39431641 12.200625 -0.35113281 10.90125 -0.30664062 9.5625 C-0.2011749 6.37509155 -0.09905552 3.18761302 0 0 Z " fill="#78B4F3" transform="translate(158,51)"/>
<path d="M0 0 C1.17108559 -0.00065712 1.17108559 -0.00065712 2.36582947 -0.00132751 C4.94702135 0.00076293 7.52756413 0.02410557 10.10864258 0.04760742 C11.89797104 0.05320248 13.6873041 0.057473 15.47663879 0.06047058 C20.18676435 0.07192649 24.89661249 0.10140006 29.60662842 0.13458252 C34.41260017 0.16526734 39.21861673 0.17897252 44.0246582 0.1940918 C53.45511864 0.22626907 62.88537317 0.27747443 72.31567383 0.34057617 C72.31567383 0.67057617 72.31567383 1.00057617 72.31567383 1.34057617 C67.58800863 2.10205951 63.06538665 2.46301512 58.27880859 2.45410156 C57.61454361 2.45424759 56.95027863 2.45439362 56.2658844 2.45454407 C54.09624834 2.45385402 51.92670092 2.44610471 49.75708008 2.43823242 C48.24250841 2.43636501 46.72793614 2.43494263 45.21336365 2.4339447 C41.24649356 2.43014498 37.27966067 2.42033668 33.31280518 2.40924072 C29.25712589 2.39897164 25.20144053 2.39443535 21.14575195 2.3894043 C13.2023756 2.3787119 5.25902935 2.36166638 -2.68432617 2.34057617 C-3.01432617 3.00057617 -3.34432617 3.66057617 -3.68432617 4.34057617 C-3.68432617 3.68057617 -3.68432617 3.02057617 -3.68432617 2.34057617 C-5.74423095 3.63525294 -5.74423095 3.63525294 -7.68432617 5.34057617 C-7.68432617 6.33057617 -7.68432617 7.32057617 -7.68432617 8.34057617 C-7.02432617 8.34057617 -6.36432617 8.34057617 -5.68432617 8.34057617 C-5.35432617 9.33057617 -5.02432617 10.32057617 -4.68432617 11.34057617 C-5.67432617 11.67057617 -6.66432617 12.00057617 -7.68432617 12.34057617 C-8.01432617 12.01057617 -8.34432617 11.68057617 -8.68432617 11.34057617 C-9.01432617 12.99057617 -9.34432617 14.64057617 -9.68432617 16.34057617 C-10.01432617 16.34057617 -10.34432617 16.34057617 -10.68432617 16.34057617 C-10.76534678 14.23704122 -10.82352524 12.13261665 -10.87182617 10.02807617 C-10.90663086 8.85631836 -10.94143555 7.68456055 -10.97729492 6.47729492 C-10.68432617 3.34057617 -10.68432617 3.34057617 -9.64628601 1.66581726 C-6.62362675 -0.37589235 -3.52119382 -0.05151277 0 0 Z " fill="#62A4EE" transform="translate(31.684326171875,179.659423828125)"/>
<path d="M0 0 C0.33 0 0.66 0 1 0 C0.99476318 0.61520508 0.98952637 1.23041016 0.98413086 1.86425781 C0.96330629 4.65949476 0.95032241 7.45471536 0.9375 10.25 C0.92912109 11.21808594 0.92074219 12.18617187 0.91210938 13.18359375 C0.90888672 14.11816406 0.90566406 15.05273438 0.90234375 16.015625 C0.89710693 16.87446289 0.89187012 17.73330078 0.88647461 18.61816406 C0.91644234 20.95051199 0.91644234 20.95051199 1.50439453 22.94970703 C2.14811552 25.61274589 2.07587037 28.05111645 2.02734375 30.7890625 C2.01509766 31.89507812 2.00285156 33.00109375 1.99023438 34.140625 C1.95495897 36.47141456 1.91587086 38.80214941 1.87304688 41.1328125 C1.86208984 42.23625 1.85113281 43.3396875 1.83984375 44.4765625 C1.82300537 45.48799316 1.80616699 46.49942383 1.78881836 47.54150391 C1.74954097 50.17887143 1.74954097 50.17887143 4 52 C4.8971875 51.505 4.8971875 51.505 5.8125 51 C8 50 8 50 11 50 C11 50.66 11 51.32 11 52 C10.01 52.495 10.01 52.495 9 53 C9 53.99 9 54.98 9 56 C2.375 56.125 2.375 56.125 -1 55 C-1.0252899 47.48861406 -1.04284141 39.97723903 -1.05493164 32.46582031 C-1.05997017 29.90884999 -1.06680107 27.35188257 -1.07543945 24.79492188 C-1.08752602 21.12629483 -1.09323301 17.45770577 -1.09765625 13.7890625 C-1.10539818 12.0655809 -1.10539818 12.0655809 -1.11329651 10.30728149 C-1.11337204 9.2463327 -1.11344757 8.18538391 -1.11352539 7.09228516 C-1.115746 6.15518707 -1.11796661 5.21808899 -1.12025452 4.25259399 C-1 2 -1 2 0 0 Z " fill="#6CCBF4" transform="translate(21,102)"/>
<path d="M0 0 C17.42111673 -0.54942872 30.61352637 -0.84198013 45 10 C45.86625 10.5775 46.7325 11.155 47.625 11.75 C53.45758927 17.27561089 58.92188035 25.14593014 61 33 C60.67 34.32 60.34 35.64 60 37 C58.68 34.03 57.36 31.06 56 28 C55.34 28.66 54.68 29.32 54 30 C53.94005859 29.03900391 53.94005859 29.03900391 53.87890625 28.05859375 C53.37248466 23.86342228 52.97697721 20.96789749 49.8984375 17.91796875 C48.29912336 16.75275417 46.66517583 15.63318397 44.99609375 14.5703125 C42.72115366 12.7806336 42.34790969 11.81989958 42 9 C41.40832031 8.87882812 40.81664062 8.75765625 40.20703125 8.6328125 C31.62606232 6.81303116 31.62606232 6.81303116 28 5 C27.67 4.34 27.34 3.68 27 3 C23.90496944 1.91323219 20.83634779 1.81030241 17.578125 1.68359375 C16.04091797 1.62075195 16.04091797 1.62075195 14.47265625 1.55664062 C13.40917969 1.51732422 12.34570312 1.47800781 11.25 1.4375 C10.17105469 1.39431641 9.09210938 1.35113281 7.98046875 1.30664062 C5.32043572 1.20071011 2.66031188 1.09863579 0 1 C0 0.67 0 0.34 0 0 Z " fill="#B0A3F6" transform="translate(407,48)"/>
<path d="M0 0 C3.72910066 -0.0582462 7.45808364 -0.09367917 11.1875 -0.125 C12.24259766 -0.14175781 13.29769531 -0.15851562 14.38476562 -0.17578125 C15.40634766 -0.18222656 16.42792969 -0.18867187 17.48046875 -0.1953125 C18.41785889 -0.20578613 19.35524902 -0.21625977 20.32104492 -0.22705078 C23.27702737 0.02347904 25.37961035 0.6111906 28 2 C28.33 2.99 28.66 3.98 29 5 C27.1875 5.6875 27.1875 5.6875 25 6 C24.55615967 5.51748779 24.11231934 5.03497559 23.6550293 4.5378418 C21.4660119 2.50382194 20.27997841 2.65070105 17.33203125 2.70703125 C16.43935547 2.71669922 15.54667969 2.72636719 14.62695312 2.73632812 C13.69818359 2.76146484 12.76941406 2.78660156 11.8125 2.8125 C10.40194336 2.83280273 10.40194336 2.83280273 8.96289062 2.85351562 C6.64134962 2.88886904 4.32096347 2.93821326 2 3 C0.96957053 6.44698827 0.80205297 9.70925282 0.68359375 13.296875 C0.64169922 14.50214844 0.59980469 15.70742187 0.55664062 16.94921875 C0.49766602 18.83060547 0.49766602 18.83060547 0.4375 20.75 C0.39431641 22.01972656 0.35113281 23.28945312 0.30664062 24.59765625 C0.20060278 27.73166365 0.09853942 30.86574933 0 34 C-0.66 34 -1.32 34 -2 34 C-2 23.77 -2 13.54 -2 3 C-1.34 3 -0.68 3 0 3 C0 2.01 0 1.02 0 0 Z " fill="#7264E9" transform="translate(407,49)"/>
<path d="M0 0 C-5.43781389 3.39785355 -9.93727184 3.41158736 -16.13623047 3.34057617 C-17.1417244 3.34101425 -18.14721832 3.34145233 -19.18318176 3.34190369 C-22.494717 3.3398197 -25.80574109 3.31650652 -29.1171875 3.29296875 C-31.41789473 3.28737142 -33.71860554 3.28310197 -36.01931763 3.28010559 C-42.06593754 3.26866766 -48.11234024 3.23920924 -54.15887451 3.20599365 C-60.33244895 3.17527027 -66.50605859 3.16159539 -72.6796875 3.14648438 C-84.78655361 3.11433877 -96.89325872 3.0631549 -109 3 C-109 2.67 -109 2.34 -109 2 C-100.29178787 1.82675213 -91.58343136 1.66182452 -82.875 1.5 C-81.5833493 1.47565887 -80.29169861 1.45131775 -78.96090698 1.42623901 C-66.00901227 1.18539862 -53.06001635 0.94764469 -40.10546875 1.00390625 C-38.78968842 1.00920853 -38.78968842 1.00920853 -37.44732666 1.01461792 C-33.46499349 1.0344284 -29.48345534 1.06950641 -25.50146484 1.125 C-18.80095042 1.19326409 -12.52514589 1.07576611 -6.01342773 -0.66235352 C-3.71720185 -1.0474245 -2.19813391 -0.70754852 0 0 Z " fill="#C143E0" transform="translate(440,464)"/>
<path d="M0 0 C8.27544831 -0.06952789 16.55077447 -0.12282519 24.82644272 -0.15543652 C28.66923087 -0.17108879 32.5118191 -0.19231873 36.35449219 -0.22631836 C40.06329563 -0.25892795 43.77190684 -0.27685631 47.48084259 -0.28463173 C48.89543941 -0.29017241 50.31002578 -0.30099212 51.72454071 -0.31719017 C53.70655548 -0.33898301 55.6887639 -0.34022556 57.67089844 -0.34057617 C58.79896912 -0.34723801 59.92703979 -0.35389984 61.08929443 -0.36076355 C64.36839856 0.04566067 65.75695137 0.58473165 68 3 C68.48101807 5.06913757 68.48101807 5.06913757 68.45410156 7.47143555 C68.45379944 8.37214279 68.45349731 9.27285004 68.45318604 10.20085144 C68.43254089 11.16968765 68.41189575 12.13852386 68.390625 13.13671875 C68.38496521 14.13129593 68.37930542 15.12587311 68.37347412 16.15058899 C68.3510672 19.33004711 68.30086205 22.508382 68.25 25.6875 C68.22994062 27.84178061 68.21168887 29.99607887 68.1953125 32.15039062 C68.15118852 37.43397758 68.08423379 42.71690855 68 48 C67.67 48 67.34 48 67 48 C67 33.48 67 18.96 67 4 C62.21505188 2.08602075 60.15312062 1.79255368 55.1875 1.90625 C53.75654613 1.92709487 52.32554979 1.94514381 50.89453125 1.9609375 C49.72398193 1.97495605 49.72398193 1.97495605 48.52978516 1.98925781 C43.81013456 2.00929879 39.09316415 1.88929956 34.375 1.78125 C33.36783936 1.75893311 32.36067871 1.73661621 31.32299805 1.71362305 C28.21529563 1.64392816 25.10764948 1.57201241 22 1.5 C19.85677452 1.45165901 17.71354537 1.40348082 15.5703125 1.35546875 C10.3801641 1.23885232 5.19007017 1.12004591 0 1 C0 0.67 0 0.34 0 0 Z " fill="#9451E6" transform="translate(400,180)"/>
<path d="M0 0 C0.495 1.485 0.495 1.485 1 3 C-0.66666667 4.66666667 -2.33333333 6.33333333 -4 8 C-4.886875 8.928125 -5.77375 9.85625 -6.6875 10.8125 C-9 13 -9 13 -11 13 C-12.20628008 15.33214148 -13.1654738 17.49642139 -14 20 C-15.97946592 21.36363208 -17.9819245 22.69418644 -20 24 C-21.37086915 25.29470975 -22.71340837 26.62150897 -24 28 C-26 30 -26 30 -28.4375 31.4375 C-30.98588854 32.85336353 -30.98588854 32.85336353 -32.6875 34.6875 C-33.120625 35.120625 -33.55375 35.55375 -34 36 C-34.66 36 -35.32 36 -36 36 C-36 35.34 -36 34.68 -36 34 C-34.63671875 32.66015625 -34.63671875 32.66015625 -32.6875 31.0625 C-28.59599313 27.59377117 -24.83839276 23.87120949 -21.07348633 20.0534668 C-17.83750663 16.7917024 -14.48598001 13.74867797 -10.9921875 10.76953125 C-7.15451086 7.36077141 -3.59060249 3.66540671 0 0 Z " fill="#9043EB" transform="translate(334,290)"/>
<path d="M0 0 C0.99 0.33 1.98 0.66 3 1 C1.33333333 2.66666667 -0.33333333 4.33333333 -2 6 C-2.886875 6.928125 -3.77375 7.85625 -4.6875 8.8125 C-7 11 -7 11 -9 11 C-9.33 11.99 -9.66 12.98 -10 14 C-11.84361742 16.45815656 -13.20987998 17.07620178 -16.15234375 18.14453125 C-20.87642165 20.12145516 -23.96323574 23.52205929 -27.4375 27.1875 C-28.07365234 27.84169922 -28.70980469 28.49589844 -29.36523438 29.16992188 C-30.91972888 30.7711681 -32.46404153 32.38099948 -34 34 C-34.66 33.67 -35.32 33.34 -36 33 C-32.84411751 29.76959618 -29.67823083 26.54945339 -26.50292969 23.33813477 C-25.42562178 22.24580142 -24.35102928 21.15078274 -23.27929688 20.05297852 C-21.73244348 18.46946642 -20.17586878 16.89607952 -18.6171875 15.32421875 C-17.90899368 14.59279915 -17.90899368 14.59279915 -17.18649292 13.84660339 C-14.05920766 10.71777774 -10.99935563 8.84239978 -7 7 C-4.87900768 5.23590961 -4.87900768 5.23590961 -3.125 3.3125 C-2.52945313 2.68988281 -1.93390625 2.06726563 -1.3203125 1.42578125 C-0.88460937 0.95527344 -0.44890625 0.48476563 0 0 Z " fill="#C089F5" transform="translate(353,272)"/>
<path d="M0 0 C1.04059132 3.12177395 1.32284898 4.07083439 0 7 C-0.78375 7.309375 -1.5675 7.61875 -2.375 7.9375 C-5.7203919 9.2915872 -6.41669676 10.83339353 -8 14 C-8.33 14.66 -8.66 15.32 -9 16 C-11.32156597 16.40729228 -13.6568787 16.74438677 -16 17 C-16 17.66 -16 18.32 -16 19 C-16.66 19 -17.32 19 -18 19 C-17.67 19.99 -17.34 20.98 -17 22 C-17.8971875 22.12375 -17.8971875 22.12375 -18.8125 22.25 C-21.15150783 22.81411278 -21.15150783 22.81411278 -22.375 24.9375 C-24.53961492 27.68489586 -26.68552054 28.11613881 -30 29 C-29.32582031 28.32710938 -28.65164063 27.65421875 -27.95703125 26.9609375 C-25.80164031 24.8063047 -23.6553495 22.64289257 -21.51171875 20.4765625 C-9.19836047 8.06087271 -9.19836047 8.06087271 -3.41796875 3.19921875 C-1.85892049 1.91444826 -1.85892049 1.91444826 0 0 Z " fill="#924CE8" transform="translate(294,328)"/>
<path d="M0 0 C3.29159316 -0.05790353 6.58305603 -0.09356261 9.875 -0.125 C10.81214844 -0.14175781 11.74929687 -0.15851562 12.71484375 -0.17578125 C13.61074219 -0.18222656 14.50664063 -0.18867187 15.4296875 -0.1953125 C16.25710449 -0.20578613 17.08452148 -0.21625977 17.93701172 -0.22705078 C20 0 20 0 22 2 C22.17525055 4.79684797 22.23143189 7.4932808 22.1953125 10.2890625 C22.1924826 11.10748627 22.18965271 11.92591003 22.18673706 12.76913452 C22.17552532 15.38790393 22.15041929 18.00633364 22.125 20.625 C22.11497147 22.39843257 22.1058454 24.17187049 22.09765625 25.9453125 C22.07558278 30.29700626 22.04104644 34.6484455 22 39 C21.34 39 20.68 39 20 39 C20.01047363 37.9805127 20.02094727 36.96102539 20.03173828 35.91064453 C20.06788727 32.13496398 20.09088177 28.35929879 20.10986328 24.58349609 C20.11993254 22.94805328 20.13358881 21.31262851 20.15087891 19.67724609 C20.17508705 17.3290563 20.18647357 14.98110412 20.1953125 12.6328125 C20.20563507 11.89942657 20.21595764 11.16604065 20.22659302 10.41043091 C20.22699368 8.60537303 20.12212755 6.8009217 20 5 C16.32602602 1.32602602 11.76361634 1.76245661 6.75 1.4375 C5.48671875 1.35371094 4.2234375 1.26992188 2.921875 1.18359375 C1.95765625 1.12300781 0.9934375 1.06242187 0 1 C0 0.67 0 0.34 0 0 Z " fill="#5DC5EF" transform="translate(62,49)"/>
<path d="M0 0 C0.33 0 0.66 0 1 0 C1.02317605 8.27547729 1.04094195 16.550941 1.05181217 24.82644272 C1.05702947 28.66913754 1.06410622 32.51181015 1.07543945 36.35449219 C1.08630927 40.06327788 1.09228553 43.7720422 1.09487724 47.48084259 C1.0967241 48.89541205 1.10033053 50.30998035 1.10573006 51.72454071 C1.11299468 53.70664834 1.11340852 55.6887775 1.11352539 57.67089844 C1.115746 58.79896912 1.11796661 59.92703979 1.12025452 61.08929443 C1.01733586 63.58039343 0.72831998 65.62927935 0 68 C-1.32 68 -2.64 68 -4 68 C-3.05882353 59.93277311 -3.05882353 59.93277311 -2 56 C-2 55.34 -2 54.68 -2 54 C-1.34 54 -0.68 54 0 54 C-0.03029297 53.19481934 -0.06058594 52.38963867 -0.09179688 51.56005859 C-0.20567711 48.4997463 -0.31719559 45.43935847 -0.42724609 42.37890625 C-0.4979223 40.43222726 -0.57118759 38.48564281 -0.64453125 36.5390625 C-1.08150377 24.3038319 -1.39226145 12.18228772 0 0 Z " fill="#8548DE" transform="translate(467,90)"/>
<path d="M0 0 C0.66 0 1.32 0 2 0 C2 0.99 2 1.98 2 3 C1.34 3 0.68 3 0 3 C0.11848926 7.34181226 0.2427536 11.68340965 0.37231445 16.02490234 C0.41556035 17.5010939 0.45724256 18.97733215 0.49731445 20.45361328 C0.55526846 22.57859348 0.61888946 24.70334093 0.68359375 26.828125 C0.72025146 28.1059082 0.75690918 29.38369141 0.79467773 30.70019531 C0.88955219 33.85415088 0.88955219 33.85415088 1.57055664 36.26464844 C2.27950348 39.12945466 1.04157744 41.31382661 0 44 C-0.4640625 45.36125 -0.4640625 45.36125 -0.9375 46.75 C-2 49 -2 49 -5 51 C-5.66 50.67 -6.32 50.34 -7 50 C-6.731875 49.21625 -6.46375 48.4325 -6.1875 47.625 C-5.795625 46.42875 -5.40375 45.2325 -5 44 C-4.75241943 43.35272949 -4.50483887 42.70545898 -4.24975586 42.03857422 C-1.42142896 33.9890591 -1.47667609 25.92028694 -1.375 17.5 C-1.33841838 15.30510275 -1.29786801 13.11037949 -1.25234985 10.91564941 C-1.21297844 8.94586028 -1.18503409 6.97585252 -1.15771484 5.00585938 C-1 2 -1 2 0 0 Z " fill="#B4A4F9" transform="translate(405,49)"/>
<path d="M0 0 C1.65902344 -0.00386719 1.65902344 -0.00386719 3.3515625 -0.0078125 C4.50140625 -0.00007813 5.65125 0.00765625 6.8359375 0.015625 C7.99351563 0.00789063 9.15109375 0.00015625 10.34375 -0.0078125 C11.4471875 -0.00523438 12.550625 -0.00265625 13.6875 0 C14.69893066 0.00225586 15.71036133 0.00451172 16.75244141 0.00683594 C19.2109375 0.265625 19.2109375 0.265625 21.2109375 2.265625 C21.48217773 5.36328125 21.48217773 5.36328125 21.51953125 9.328125 C21.54472736 10.77995131 21.57012476 12.23177413 21.59570312 13.68359375 C21.62422669 15.96304092 21.64824422 18.24242611 21.66723633 20.52197266 C21.75335384 29.17347036 22.04552853 37.08814733 25.2109375 45.265625 C25.79875 47.06 25.79875 47.06 26.3984375 48.890625 C26.6665625 49.674375 26.9346875 50.458125 27.2109375 51.265625 C22.74643563 47.26296815 20.1450777 43.16936471 19.79443359 37.11206055 C19.76008752 35.54240303 19.74078207 33.97236392 19.734375 32.40234375 C19.71879547 31.5697554 19.70321594 30.73716705 19.68716431 29.87934875 C19.63987297 27.2372827 19.61193971 24.59547891 19.5859375 21.953125 C19.54946265 19.29310068 19.50892547 16.63322571 19.46328735 13.9733429 C19.43602385 12.32189201 19.41468861 10.67033089 19.39974976 9.01872253 C19.69727789 5.33988523 19.69727789 5.33988523 18.2109375 2.265625 C16.13831674 2.17795388 14.06273456 2.15866627 11.98828125 2.16796875 C10.09819336 2.17280273 10.09819336 2.17280273 8.16992188 2.17773438 C6.82942641 2.18609097 5.48893162 2.19455593 4.1484375 2.203125 C2.80403808 2.2081384 1.4596369 2.21270158 0.11523438 2.21679688 C-3.18624191 2.22863012 -6.48763053 2.24511529 -9.7890625 2.265625 C-6.44297755 0.25697668 -3.87437937 0.00862205 0 0 Z " fill="#BBEFFE" transform="translate(63.7890625,47.734375)"/>
<path d="M0 0 C1.26457031 -0.03738281 2.52914062 -0.07476562 3.83203125 -0.11328125 C7.1875 0.3125 7.1875 0.3125 9.63671875 2.20703125 C11.1875 4.3125 11.1875 4.3125 11.1875 6.3125 C9.970625 5.8175 8.75375 5.3225 7.5 4.8125 C0.90789914 2.64979183 -6.72120464 1.62289859 -13.28125 4.33203125 C-15.2527838 5.54952694 -17.02712017 6.83857464 -18.8125 8.3125 C-20.05 9.2096875 -20.05 9.2096875 -21.3125 10.125 C-21.8075 10.516875 -22.3025 10.90875 -22.8125 11.3125 C-22.1525 9.0025 -21.4925 6.6925 -20.8125 4.3125 C-19.8225 4.3125 -18.8325 4.3125 -17.8125 4.3125 C-17.4825 3.3225 -17.1525 2.3325 -16.8125 1.3125 C-11.21694866 0.52715946 -5.64831688 0.13172317 0 0 Z " fill="#ADADF4" transform="translate(160.8125,282.6875)"/>
<path d="M0 0 C1.68178661 2.52267991 2.90106742 4.81091823 4.125 7.5625 C4.47820313 8.34753906 4.83140625 9.13257813 5.1953125 9.94140625 C6 12 6 12 6 14 C6.61875 14.0825 7.2375 14.165 7.875 14.25 C10 15 10 15 11.25 17.0625 C11.4975 17.701875 11.745 18.34125 12 19 C13.32 18.67 14.64 18.34 16 18 C16 19.65 16 21.3 16 23 C16.66 23 17.32 23 18 23 C18 23.66 18 24.32 18 25 C18.639375 25.103125 19.27875 25.20625 19.9375 25.3125 C20.618125 25.539375 21.29875 25.76625 22 26 C22.33 26.99 22.66 27.98 23 29 C16.04961655 27.84160276 12.39839973 24.37978709 8 19 C3.96172902 13.1253409 0 7.28246547 0 0 Z " fill="#9F94F3" transform="translate(21,432)"/>
<path d="M0 0 C1.11592529 -0.00193359 2.23185059 -0.00386719 3.3815918 -0.00585938 C4.57695557 -0.00134766 5.77231934 0.00316406 7.00390625 0.0078125 C8.81918823 0.01071289 8.81918823 0.01071289 10.67114258 0.01367188 C20.66098215 0.0612331 30.60121153 0.45309154 40.56640625 1.1328125 C40.56640625 1.4628125 40.56640625 1.7928125 40.56640625 2.1328125 C35.8160598 2.30095623 31.06553845 2.46145783 26.31469727 2.61499023 C24.69971837 2.66824553 23.08480601 2.72356113 21.4699707 2.78100586 C19.14418887 2.86337879 16.81826573 2.93825474 14.4921875 3.01171875 C13.4153344 3.05227135 13.4153344 3.05227135 12.31672668 3.09364319 C8.56144535 3.20457087 5.22441388 2.9613481 1.56640625 2.1328125 C-0.54180172 2.4513302 -0.54180172 2.4513302 -2.43359375 3.1328125 C-3.42359375 3.4628125 -4.41359375 3.7928125 -5.43359375 4.1328125 C-6.09359375 4.7928125 -6.75359375 5.4528125 -7.43359375 6.1328125 C-7.43359375 4.4828125 -7.43359375 2.8328125 -7.43359375 1.1328125 C-4.82915853 -0.16940511 -2.91524702 0.00328902 0 0 Z " fill="#55A8F0" transform="translate(167.43359375,48.8671875)"/>
<path d="M0 0 C0 3 0 3 -1.328125 4.61328125 C-6.90024696 9.5398525 -12.98726617 13.42346965 -20 16 C-20.99 15.67 -21.98 15.34 -23 15 C-22.21625 14.814375 -21.4325 14.62875 -20.625 14.4375 C-17.60623658 13.16038373 -17.60623658 13.16038373 -16.6875 9.375 C-16.460625 8.26125 -16.23375 7.1475 -16 6 C-14.68 5.67 -13.36 5.34 -12 5 C-12 5.66 -12 6.32 -12 7 C-11.01 6.34 -10.02 5.68 -9 5 C-8.195625 4.87625 -7.39125 4.7525 -6.5625 4.625 C-3.37827066 3.8483587 -2.12000099 2.43407521 0 0 Z " fill="#E89CEE" transform="translate(457,451)"/>
<path d="M0 0 C0.66 0 1.32 0 2 0 C1.3793472 2.98042645 0.68508195 4.50190064 -1 7.1875 C-4.45720643 13.73865566 -3.83559785 21.76630528 -4 29 C-4.33 29 -4.66 29 -5 29 C-5.309375 28.030625 -5.61875 27.06125 -5.9375 26.0625 C-6.69523342 23.15934208 -6.69523342 23.15934208 -8 22 C-8.31933953 14.97453026 -7.48302682 11.40600293 -3 6 C-1.95548562 4.02288349 -0.94301862 2.02749004 0 0 Z " fill="#6764EE" transform="translate(138,288)"/>
<path d="M0 0 C0.66 0.33 1.32 0.66 2 1 C-14.59189114 17.85759758 -14.59189114 17.85759758 -21 18 C-21.99 17.34 -22.98 16.68 -24 16 C-19.545 15.505 -19.545 15.505 -15 15 C-14.67 13.68 -14.34 12.36 -14 11 C-13.67 10.34 -13.34 9.68 -13 9 C-12.01 9 -11.02 9 -10 9 C-9.67 7.68 -9.34 6.36 -9 5 C-8.2575 4.9175 -7.515 4.835 -6.75 4.75 C-3.48778646 3.8603054 -2.19045122 2.51496251 0 0 Z " fill="#B595F3" transform="translate(239,312)"/>
<path d="M0 0 C0 3.54404336 -0.60989485 4.10267905 -2.875 6.6875 C-3.40867187 7.31011719 -3.94234375 7.93273437 -4.4921875 8.57421875 C-6 10 -6 10 -8 10 C-8.21914062 10.56847656 -8.43828125 11.13695312 -8.6640625 11.72265625 C-10.42244534 14.72013343 -12.6320106 16.31591168 -15.375 18.4375 C-19.13783258 21.35344169 -22.15316061 24.1749812 -25 28 C-26.32 27.67 -27.64 27.34 -29 27 C-27.54166667 25.6875 -26.08333333 24.375 -24.625 23.0625 C-23.71105469 22.23878906 -22.79710937 21.41507812 -21.85546875 20.56640625 C-20.0502836 18.94396214 -18.24091317 17.32615205 -16.42578125 15.71484375 C-10.75046603 10.66318955 -5.31439069 5.42992092 0 0 Z " fill="#8D49E3" transform="translate(263,357)"/>
<path d="M0 0 C3.3447036 3.3447036 2.79413974 8.05091349 3.2421875 12.6171875 C4.0855319 16.38180734 5.01231061 17.64847261 8 20 C8.66 20.33 9.32 20.66 10 21 C9.67 22.65 9.34 24.3 9 26 C8.01 26 7.02 26 6 26 C1.53773825 17.02235433 -1.00924678 10.20460632 0 0 Z " fill="#6B66E8" transform="translate(21,420)"/>
<path d="M0 0 C0.66 0.33 1.32 0.66 2 1 C-3.60155456 6.69422734 -9.19455495 12.3052784 -15.2734375 17.49609375 C-17.63714999 19.55498359 -19.81849734 21.75032538 -22 24 C-22.66 23.67 -23.32 23.34 -24 23 C-23.43410156 22.45730469 -22.86820312 21.91460937 -22.28515625 21.35546875 C-21.55167969 20.64003906 -20.81820313 19.92460937 -20.0625 19.1875 C-18.96615234 18.12595703 -18.96615234 18.12595703 -17.84765625 17.04296875 C-15.79165354 15.04463837 -15.79165354 15.04463837 -15 12 C-13.5625 10.3125 -13.5625 10.3125 -12 9 C-11.34 9 -10.68 9 -10 9 C-10 8.34 -10 7.68 -10 7 C-9.11054688 6.84724609 -9.11054688 6.84724609 -8.203125 6.69140625 C-5.63815889 5.88644348 -4.57256517 4.88433098 -2.75 2.9375 C-2.22921875 2.38964844 -1.7084375 1.84179688 -1.171875 1.27734375 C-0.78515625 0.85582031 -0.3984375 0.43429687 0 0 Z " fill="#C7AAF7" transform="translate(293,262)"/>
<path d="M0 0 C0.66 0.33 1.32 0.66 2 1 C-2.23346413 5.35253031 -6.60074575 9.45736624 -11.19921875 13.421875 C-13.2242219 15.19649815 -15.13545857 17.05776935 -17 19 C-17.66 18.67 -18.32 18.34 -19 18 C-18.38125 17.46375 -17.7625 16.9275 -17.125 16.375 C-14.7217098 13.68896977 -13.93977847 11.44585438 -13 8 C-12.01 8 -11.02 8 -10 8 C-9.67 7.01 -9.34 6.02 -9 5 C-8.2575 4.9175 -7.515 4.835 -6.75 4.75 C-3.48778646 3.8603054 -2.19045122 2.51496251 0 0 Z " fill="#B593F5" transform="translate(329,229)"/>
<path d="M0 0 C3.375 -0.125 3.375 -0.125 7 0 C9 2 9 2 9.22705078 5.34814453 C9.22673375 6.77640633 9.21541361 8.20469212 9.1953125 9.6328125 C9.1924826 10.38464813 9.18965271 11.13648376 9.18673706 11.91110229 C9.17552874 14.31589578 9.15042352 16.72031881 9.125 19.125 C9.11497102 20.75390088 9.10584503 22.38280758 9.09765625 24.01171875 C9.07558735 28.00795556 9.04105351 32.00391494 9 36 C6.70177675 32.35783305 6.76871398 29.29174993 6.8046875 25.046875 C6.80893234 24.05654266 6.80893234 24.05654266 6.81326294 23.04620361 C6.82441585 20.94728103 6.84951054 18.84879258 6.875 16.75 C6.88503616 15.32292285 6.8941609 13.89583898 6.90234375 12.46875 C6.92433889 8.97902672 6.95883464 5.48955577 7 2 C5.02 2.33 3.04 2.66 1 3 C0.67 2.01 0.34 1.02 0 0 Z " fill="#5B61E1" transform="translate(321,49)"/>
<path d="M0 0 C0 4.50786979 -0.27268567 6.21673841 -3.4375 9.625 C-6.48251312 13.02876467 -6.94011652 16.49382362 -7.54296875 20.92578125 C-7.69378906 21.61027344 -7.84460938 22.29476562 -8 23 C-8.66 23.33 -9.32 23.66 -10 24 C-10.37851209 18.06997733 -9.10575375 13.52760359 -7 8 C-6.34 8 -5.68 8 -5 8 C-4.731875 7.236875 -4.46375 6.47375 -4.1875 5.6875 C-3.05575888 3.12619116 -2.08776599 1.80307062 0 0 Z " fill="#47D3F8" transform="translate(31,68)"/>
<path d="M0 0 C0.33 0 0.66 0 1 0 C1.268125 1.175625 1.53625 2.35125 1.8125 3.5625 C3.75824276 11.08074414 6.06021383 15.56009594 12.16015625 20.421875 C14 22 14 22 16 25 C8.73897661 21.51535708 3.61510711 17.88582307 0.6796875 10.18359375 C-1.53472988 3.06945976 -1.53472988 3.06945976 0 0 Z " fill="#8B88F0" transform="translate(330,83)"/>
<path d="M0 0 C4.875 0.875 4.875 0.875 6 2 C6.0928726 3.41225046 6.11746772 4.82908934 6.11352539 6.24438477 C6.11341209 7.59567223 6.11341209 7.59567223 6.11329651 8.97425842 C6.10813522 9.95341721 6.10297394 10.93257599 6.09765625 11.94140625 C6.0962413 12.93881332 6.09482635 13.9362204 6.09336853 14.96385193 C6.08775114 18.16343124 6.07519571 21.36294169 6.0625 24.5625 C6.05748724 26.72591045 6.05292395 28.88932199 6.04882812 31.05273438 C6.03777607 36.36851325 6.02102104 41.68425171 6 47 C5.67 47 5.34 47 5 47 C5 32.48 5 17.96 5 3 C2.525 2.01 2.525 2.01 0 1 C0 0.67 0 0.34 0 0 Z " fill="#9245DC" transform="translate(462,181)"/>
<path d="M0 0 C2 2 2 2 3.125 4.6875 C5.30451879 8.53798319 7.83262103 10.65785742 11.2578125 13.38671875 C13 15 13 15 14 18 C9.76031396 17.51080546 6.79837653 15.05277439 4 12 C1.34180589 7.89039929 0 4.94916424 0 0 Z " fill="#80C8F4" transform="translate(85,90)"/>
<path d="M0 0 C1.04059132 3.12177395 1.32284898 4.07083439 0 7 C-0.78375 7.309375 -1.5675 7.61875 -2.375 7.9375 C-5.7203919 9.2915872 -6.41669676 10.83339353 -8 14 C-8.33 14.66 -8.66 15.32 -9 16 C-9.66 15.67 -10.32 15.34 -11 15 C-11.30859375 12.796875 -11.30859375 12.796875 -11 10 C-8.84765625 7.578125 -8.84765625 7.578125 -6.0625 5.25 C-4.68771484 4.08210938 -4.68771484 4.08210938 -3.28515625 2.890625 C-2.53105469 2.26671875 -1.77695312 1.6428125 -1 1 C-0.67 0.67 -0.34 0.34 0 0 Z " fill="#9345F1" transform="translate(294,328)"/>
<path d="M0 0 C2.87580207 1.29678592 4.86328405 2.641881 7.0234375 4.93359375 C7.84328125 5.7834082 7.84328125 5.7834082 8.6796875 6.65039062 C9.80424684 7.835842 10.9266683 9.02332533 12.046875 10.21289062 C15.43451267 13.71583521 18.42914055 16.07361059 23 18 C23 18.33 23 18.66 23 19 C17.375 19.25 17.375 19.25 14 17 C13.56042969 16.25234375 13.12085938 15.5046875 12.66796875 14.734375 C10.64813614 11.423174 8.09205331 8.91119813 5.3125 6.25 C3.51990184 4.51843608 1.75227467 2.77309967 0 1 C0 0.67 0 0.34 0 0 Z " fill="#DAC0FC" transform="translate(187,367)"/>
<path d="M0 0 C7.72772107 -0.13690844 15.30881404 0.24833087 23 1 C19.92277263 3.65230956 19.36310762 4.01729084 15.0625 3.8125 C11.84262579 3.27083892 8.96820169 2.39134454 6 1 C5.67 1.66 5.34 2.32 5 3 C4.34 3 3.68 3 3 3 C3 2.34 3 1.68 3 1 C2.01 1.33 1.02 1.66 0 2 C0 1.34 0 0.68 0 0 Z " fill="#873FEF" transform="translate(204,388)"/>
<path d="M0 0 C0 3 0 3 -2.4375 5.5 C-3.283125 6.325 -4.12875 7.15 -5 8 C-5.33 8.99 -5.66 9.98 -6 11 C-11.37142857 15 -11.37142857 15 -14 15 C-14.33 15.66 -14.66 16.32 -15 17 C-16.98 16.67 -18.96 16.34 -21 16 C-19.05485153 15.00801741 -17.12172287 14.05069695 -15.10546875 13.2109375 C-9.24706134 10.65757867 -5.94336114 6.92387256 -2 2 C-1.34 1.34 -0.68 0.68 0 0 Z " fill="#87B7F3" transform="translate(151,99)"/>
<path d="M0 0 C5.402626 4.44922141 8.61030548 10.46876722 11 17 C10.67 18.32 10.34 19.64 10 21 C8.68 18.03 7.36 15.06 6 12 C5.34 12.66 4.68 13.32 4 14 C3.81824219 12.98679687 3.81824219 12.98679687 3.6328125 11.953125 C3.46523438 11.06109375 3.29765625 10.1690625 3.125 9.25 C2.96257812 8.36828125 2.80015625 7.4865625 2.6328125 6.578125 C2.03203736 4.13052256 1.22002883 2.19400143 0 0 Z " fill="#BFA4F7" transform="translate(457,64)"/>
<path d="M0 0 C0.103125 0.763125 0.20625 1.52625 0.3125 2.3125 C1.05594134 5.21867978 1.65886963 6.19913049 4 8 C4.99 8.33 5.98 8.66 7 9 C7 11.31 7 13.62 7 16 C6.443125 15.2265625 6.443125 15.2265625 5.875 14.4375 C5.25625 13.633125 4.6375 12.82875 4 12 C3.57460938 11.4328125 3.14921875 10.865625 2.7109375 10.28125 C-0.79767579 5.85326746 -3.64619443 3.82029389 -9 2 C-9 1.67 -9 1.34 -9 1 C-2.25 0 -2.25 0 0 0 Z " fill="#C395F6" transform="translate(361,224)"/>
<path d="M0 0 C1.15518918 0.90484792 2.29885406 1.8244206 3.4375 2.75 C4.07558594 3.26046875 4.71367187 3.7709375 5.37109375 4.296875 C7.21220621 6.22187508 7.40904191 7.46580136 8 10 C8.825 10.33 9.65 10.66 10.5 11 C11.325 11.33 12.15 11.66 13 12 C13.65625 14.0625 13.65625 14.0625 14 16 C8.49280079 12.09489511 3.64172645 7.90282356 -1 3 C-0.67 2.01 -0.34 1.02 0 0 Z " fill="#6957ED" transform="translate(176,288)"/>
<path d="M0 0 C7.26 0 14.52 0 22 0 C17.15941747 3.22705502 11.2136913 3.49711787 5.5 2.61328125 C3.64725094 2.1467855 1.81927891 1.58354229 0 1 C0 0.67 0 0.34 0 0 Z " fill="#765EE8" transform="translate(357,115)"/>
<path d="M0 0 C6.13842918 5.18356242 12.07341663 10.57712263 18 16 C17.34 16.66 16.68 17.32 16 18 C15.484375 17.278125 14.96875 16.55625 14.4375 15.8125 C12.4375447 13.50485927 11.01982374 12.21502339 8.5625 10.5625 C4.97564622 8.11972889 2.56698073 5.50042826 0 2 C0 1.34 0 0.68 0 0 Z " fill="#7D62E9" transform="translate(152,335)"/>
<path d="M0 0 C1.48484412 0.39595843 2.9628831 0.81750706 4.4375 1.25 C5.26121094 1.48203125 6.08492187 1.7140625 6.93359375 1.953125 C9 3 9 3 9.65625 5 C9.82640625 5.99 9.82640625 5.99 10 7 C11.97670607 8.75422772 11.97670607 8.75422772 14 10 C13.67 10.99 13.34 11.98 13 13 C10.8303243 11.02404535 8.66418031 9.04445723 6.5 7.0625 C5.87996094 6.49853516 5.25992188 5.93457031 4.62109375 5.35351562 C3.06178382 3.92272025 1.52862521 2.46353265 0 1 C0 0.67 0 0.34 0 0 Z " fill="#7957E6" transform="translate(198,311)"/>
<path d="M0 0 C0.33 0.66 0.66 1.32 1 2 C0.69578125 2.74507813 0.3915625 3.49015625 0.078125 4.2578125 C-2.6091317 11.0927915 -1.4608924 19.23254589 1 26 C-0.32 25.34 -1.64 24.68 -3 24 C-3.08138426 21.12442297 -3.14067851 18.25117738 -3.1875 15.375 C-3.21263672 14.56675781 -3.23777344 13.75851562 -3.26367188 12.92578125 C-3.32589961 7.82310684 -2.75491551 4.46860312 0 0 Z " fill="#C3C4FA" transform="translate(137,294)"/>
<path d="M0 0 C2.4178712 -0.10826289 4.83087556 -0.18739789 7.25 -0.25 C8.27287109 -0.30027344 8.27287109 -0.30027344 9.31640625 -0.3515625 C12.83282253 -0.41984243 14.64850319 -0.26749128 17.484375 1.890625 C19 4 19 4 19 6 C16.03 5.01 13.06 4.02 10 3 C10 2.34 10 1.68 10 1 C6.7 1 3.4 1 0 1 C0 0.67 0 0.34 0 0 Z " fill="#9C97F1" transform="translate(153,283)"/>
<path d="M0 0 C-0.33 0.99 -0.66 1.98 -1 3 C-5.68965706 4.11658501 -8.53763531 3.80619523 -13 2 C-13.33 2.66 -13.66 3.32 -14 4 C-14 3.34 -14 2.68 -14 2 C-15.65 2 -17.3 2 -19 2 C-19 1.67 -19 1.34 -19 1 C-12.63849395 0.34513908 -6.39628979 -0.12068471 0 0 Z " fill="#519CF4" transform="translate(134,115)"/>
<path d="M0 0 C2.97754895 1.3886327 5.51158665 3.01261343 8.125 5 C8.80820312 5.515625 9.49140625 6.03125 10.1953125 6.5625 C12 8 12 8 14 10 C10.0118259 9.43026084 7.37553327 8.16380338 4 6 C2.67391178 5.31903578 1.34313399 4.64669414 0 4 C0 3.67 0 3.34 0 3 C-0.66 2.67 -1.32 2.34 -2 2 C-1.34 1.34 -0.68 0.68 0 0 Z " fill="#6D62EB" transform="translate(338,103)"/>
<path d="M0 0 C0.66 0.33 1.32 0.66 2 1 C-1.75 5.875 -1.75 5.875 -4 7 C-4 8.32 -4 9.64 -4 11 C-5.875 11.625 -5.875 11.625 -8 12 C-8.66 11.34 -9.32 10.68 -10 10 C-8.90033225 8.70450101 -7.79508199 7.41373929 -6.6875 6.125 C-6.07261719 5.40570313 -5.45773437 4.68640625 -4.82421875 3.9453125 C-3 2 -3 2 0 0 Z " fill="#913BF8" transform="translate(267,355)"/>
<path d="M0 0 C1.65 0.33 3.3 0.66 5 1 C5 4 5 4 3.3203125 5.7890625 C2.59585937 6.39492188 1.87140625 7.00078125 1.125 7.625 C0.40570313 8.23601562 -0.31359375 8.84703125 -1.0546875 9.4765625 C-3 11 -3 11 -5 12 C-5 11.01 -5 10.02 -5 9 C-4.34 9 -3.68 9 -3 9 C-3 8.34 -3 7.68 -3 7 C-2.34 6.67 -1.68 6.34 -1 6 C-0.34227572 2.97065509 -0.34227572 2.97065509 0 0 Z " fill="#7C4AEA" transform="translate(290,258)"/>
<path d="M0 0 C0 3 0 3 -1.4609375 4.75390625 C-2.40839844 5.64916016 -2.40839844 5.64916016 -3.375 6.5625 C-4.00148438 7.16191406 -4.62796875 7.76132812 -5.2734375 8.37890625 C-5.84320313 8.91386719 -6.41296875 9.44882812 -7 10 C-7.66 10.66 -8.32 11.32 -9 12 C-9.6875 10.1875 -9.6875 10.1875 -10 8 C-8.75 6.25 -8.75 6.25 -7 5 C-6.01 5 -5.02 5 -4 5 C-3.67 4.01 -3.34 3.02 -3 2 C-2.01 1.34 -1.02 0.68 0 0 Z " fill="#8154E8" transform="translate(277,275)"/>
<path d="M0 0 C0.99 0.33 1.98 0.66 3 1 C-0.31562468 5.15877322 -3.19120885 8.53062076 -8 11 C-8.99 11.66 -9.98 12.32 -11 13 C-9.5 10 -9.5 10 -8 7 C-7.01 7 -6.02 7 -5 7 C-4.67 6.01 -4.34 5.02 -4 4 C-3.34 4 -2.68 4 -2 4 C-2 3.34 -2 2.68 -2 2 C-1.34 2 -0.68 2 0 2 C0 1.34 0 0.68 0 0 Z " fill="#8257E7" transform="translate(245,304)"/>
<path d="M0 0 C0.33 0.99 0.66 1.98 1 3 C-1.15859924 6.83750975 -3.28595371 9.61239881 -7 12 C-7.66 11.67 -8.32 11.34 -9 11 C-6.03 7.37 -3.06 3.74 0 0 Z " fill="#7451EA" transform="translate(399,98)"/>
<path d="M0 0 C-5.1468192 3.16727335 -9.158256 3.35050464 -15 3 C-14.67 2.34 -14.34 1.68 -14 1 C-11.85546875 0.33203125 -11.85546875 0.33203125 -9.1875 -0.1875 C-8.31480469 -0.36667969 -7.44210937 -0.54585938 -6.54296875 -0.73046875 C-4.02642222 -0.99719949 -2.38332645 -0.78333107 0 0 Z " fill="#CE57DF" transform="translate(440,464)"/>
<path d="M0 0 C0.66 0.33 1.32 0.66 2 1 C1.04882866 2.1725131 0.08882991 3.33787015 -0.875 4.5 C-1.67550781 5.47453125 -1.67550781 5.47453125 -2.4921875 6.46875 C-2.98976562 6.9740625 -3.48734375 7.479375 -4 8 C-4.66 8 -5.32 8 -6 8 C-6 8.99 -6 9.98 -6 11 C-7.32 10.67 -8.64 10.34 -10 10 C-7.02911382 6.00073014 -3.87051275 3.07881696 0 0 Z " fill="#903BF7" transform="translate(251,371)"/>
<path d="M0 0 C0.67578125 1.734375 0.67578125 1.734375 1 4 C-0.14453125 6.140625 -0.14453125 6.140625 -1.8125 8.25 C-2.35519531 8.95640625 -2.89789063 9.6628125 -3.45703125 10.390625 C-3.96621094 10.92171875 -4.47539062 11.4528125 -5 12 C-5.66 12 -6.32 12 -7 12 C-5.63855967 6.80177328 -3.53269829 3.90456127 0 0 Z " fill="#95E2F4" transform="translate(31,64)"/>
<path d="M0 0 C0.99 0 1.98 0 3 0 C3 0.99 3 1.98 3 3 C3.66 3 4.32 3 5 3 C5.33 3.99 5.66 4.98 6 6 C5.01 6.33 4.02 6.66 3 7 C2.67 6.67 2.34 6.34 2 6 C1.67 7.65 1.34 9.3 1 11 C0.67 11 0.34 11 0 11 C0 7.37 0 3.74 0 0 Z " fill="#53ADF7" transform="translate(21,185)"/>
<path d="M0 0 C0.66 0 1.32 0 2 0 C2.19335938 0.65226562 2.38671875 1.30453125 2.5859375 1.9765625 C3.98640448 6.6771398 5.41208726 11.35840891 7 16 C2.71991621 12.1626835 0.13726781 8.47082055 -0.1875 2.625 C-0.125625 1.75875 -0.06375 0.8925 0 0 Z " fill="#AEE7FB" transform="translate(84,83)"/>
<path d="M0 0 C3.79062273 4.82442893 5.28418033 7.74803275 5 14 C4.67 13.34 4.34 12.68 4 12 C3.34 11.67 2.68 11.34 2 11 C2 9.35 2 7.7 2 6 C1.01 5.67 0.02 5.34 -1 5 C-0.67 3.35 -0.34 1.7 0 0 Z " fill="#7A4BE8" transform="translate(462,74)"/>
<path d="M0 0 C3.375 -0.125 3.375 -0.125 7 0 C9 2 9 2 9.125 5.125 C9.08375 6.07375 9.0425 7.0225 9 8 C8.34 7.67 7.68 7.34 7 7 C7 5.35 7 3.7 7 2 C5.02 2.33 3.04 2.66 1 3 C0.67 2.01 0.34 1.02 0 0 Z " fill="#6071E7" transform="translate(321,49)"/>
<path d="M0 0 C0.66 0 1.32 0 2 0 C0.82884146 3.33329739 -0.11647596 5.86405627 -3 8 C-5.6875 8.6875 -5.6875 8.6875 -8 9 C-7.04882866 7.8274869 -6.08882991 6.66212985 -5.125 5.5 C-4.32449219 4.52546875 -4.32449219 4.52546875 -3.5078125 3.53125 C-2.76144531 2.77328125 -2.76144531 2.77328125 -2 2 C-1.34 2 -0.68 2 0 2 C0 1.34 0 0.68 0 0 Z " fill="#964CE8" transform="translate(343,281)"/>
<path d="M0 0 C0.33 0 0.66 0 1 0 C1.33266291 6.20970773 0.45029331 10.28264895 -2 16 C-2.33 16 -2.66 16 -3 16 C-3.37851209 10.06997733 -2.10575375 5.52760359 0 0 Z " fill="#62CEF1" transform="translate(24,76)"/>
<path d="M0 0 C4.2742558 1.5830577 6.26531794 4.50568404 9 8 C6 7 3 6 0 5 C0 3.35 0 1.7 0 0 Z " fill="#7952EA" transform="translate(170,353)"/>
<path d="M0 0 C0 0.66 0 1.32 0 2 C-0.99 2.495 -0.99 2.495 -2 3 C-2 3.99 -2 4.98 -2 6 C-3.98 5.34 -5.96 4.68 -8 4 C-5.52914451 0.29371676 -4.37054922 0 0 0 Z " fill="#4EBBFB" transform="translate(32,152)"/>
<path d="M0 0 C0 3.77910478 -0.99703962 4.46106101 -3.5 7.1875 C-4.1496875 7.90292969 -4.799375 8.61835937 -5.46875 9.35546875 C-5.9740625 9.89816406 -6.479375 10.44085938 -7 11 C-8.32 10.67 -9.64 10.34 -11 10 C-9.93458984 9.04287109 -9.93458984 9.04287109 -8.84765625 8.06640625 C-7.46900391 6.82697266 -7.46900391 6.82697266 -6.0625 5.5625 C-4.68771484 4.32693359 -4.68771484 4.32693359 -3.28515625 3.06640625 C-1.61665644 1.56046061 -1.61665644 1.56046061 0 0 Z " fill="#C7B2FB" transform="translate(397,99)"/>
<path d="M0 0 C2.475 0.99 2.475 0.99 5 2 C4.67 3.65 4.34 5.3 4 7 C3.01 7 2.02 7 1 7 C0.67 4.69 0.34 2.38 0 0 Z " fill="#6558F0" transform="translate(26,439)"/>
<path d="M0 0 C0.99 0.495 0.99 0.495 2 1 C2.38063221 3.3260857 2.71269945 5.66055264 3 8 C3.95865509 10.33075929 3.95865509 10.33075929 7 12 C5.35 12 3.7 12 2 12 C2 11.34 2 10.68 2 10 C1.34 10 0.68 10 0 10 C0 6.7 0 3.4 0 0 Z " fill="#5BBAF0" transform="translate(21,146)"/>
<path d="M0 0 C3.3 0 6.6 0 10 0 C10 0.66 10 1.32 10 2 C7.04335481 3.4783226 4.25770263 3.06032783 1 3 C0.67 2.01 0.34 1.02 0 0 Z " fill="#7A4EE7" transform="translate(214,325)"/>
<path d="M0 0 C0.99 0.33 1.98 0.66 3 1 C3 1.99 3 2.98 3 4 C3.66 4.66 4.32 5.32 5 6 C5.33 6.99 5.66 7.98 6 9 C2.51866169 7.60746468 1.52113967 6.36823784 0 3 C-0.66 2.67 -1.32 2.34 -2 2 C-1.34 2 -0.68 2 0 2 C0 1.34 0 0.68 0 0 Z " fill="#8941EF" transform="translate(361,224)"/>
<path d="M0 0 C0.66 0 1.32 0 2 0 C2.14285714 8.57142857 2.14285714 8.57142857 1 12 C0.34 12 -0.32 12 -1 12 C-1.08047959 8.4588979 -0.97311528 5.40590348 0 2 C0 1.34 0 0.68 0 0 Z " fill="#8E34F1" transform="translate(465,144)"/>
<path d="M0 0 C-2.31 1.65 -4.62 3.3 -7 5 C-7.99 4.34 -8.98 3.68 -10 3 C-9.34 3 -8.68 3 -8 3 C-8 2.34 -8 1.68 -8 1 C-4.59449725 -1.06762667 -4.18836538 -1.04709135 0 0 Z " fill="#7959ED" transform="translate(390,111)"/>
<path d="M0 0 C0 0.66 0 1.32 0 2 C0.66 2.33 1.32 2.66 2 3 C1.01 3 0.02 3 -1 3 C-1 3.66 -1 4.32 -1 5 C-2.32 5.33 -3.64 5.66 -5 6 C-4.625 3.5625 -4.625 3.5625 -4 1 C-2 0 -2 0 0 0 Z " fill="#DD46ED" transform="translate(445,456)"/>
<path d="M0 0 C3.26008643 3.16952847 6.22237877 6.39937989 9 10 C7.68 10.33 6.36 10.66 5 11 C4.731875 10.2575 4.46375 9.515 4.1875 8.75 C3.05593565 6.12953519 1.71182842 4.2565011 0 2 C0 1.34 0 0.68 0 0 Z " fill="#7365EB" transform="translate(135,318)"/>
<path d="M0 0 C0 0.33 0 0.66 0 1 C-1.41377782 1.36552803 -2.83120576 1.71695495 -4.25 2.0625 C-5.03890625 2.25972656 -5.8278125 2.45695313 -6.640625 2.66015625 C-9.10394822 3.01497267 -10.65604132 2.76877544 -13 2 C-8.11922548 -0.44038726 -5.47332932 -1.46845421 0 0 Z " fill="#7A3FE9" transform="translate(347,222)"/>
<path d="M0 0 C0 3.16880694 -0.2058242 4.43689172 -2 7 C-4.625 7.75 -4.625 7.75 -7 8 C-6.02133662 6.85373678 -5.04205413 5.70800212 -4.0625 4.5625 C-3.51722656 3.92441406 -2.97195313 3.28632813 -2.41015625 2.62890625 C-1.63204305 1.73008851 -0.84063472 0.84063472 0 0 Z " fill="#974BEA" transform="translate(361,264)"/>
<path d="M0 0 C0.66 0.33 1.32 0.66 2 1 C0.02 3.31 -1.96 5.62 -4 8 C-4.66 7.34 -5.32 6.68 -6 6 C-4.98545548 3.4636387 -4.3146444 2.20648539 -2 0.6875 C-1.34 0.460625 -0.68 0.23375 0 0 Z " fill="#9339F1" transform="translate(366,261)"/>
<path d="M0 0 C0.99 0 1.98 0 3 0 C3 0.66 3 1.32 3 2 C3.804375 2.2475 4.60875 2.495 5.4375 2.75 C6.283125 3.1625 7.12875 3.575 8 4 C8.66015625 6.078125 8.66015625 6.078125 9 8 C7.68388323 7.04663979 6.37221039 6.08714226 5.0625 5.125 C4.33160156 4.59132813 3.60070312 4.05765625 2.84765625 3.5078125 C1 2 1 2 0 0 Z " fill="#725DE5" transform="translate(181,296)"/>
<path d="M0 0 C0.66 0 1.32 0 2 0 C1.42647107 3.87132028 -0.48704352 6.08172796 -3 9 C-2.5020163 5.26512223 -2.12508244 3.18762365 0 0 Z " fill="#6264EC" transform="translate(138,288)"/>
<path d="M0 0 C1.66666667 0 3.33333333 0 5 0 C3.63016497 3.16115776 3.0109362 3.9927092 0 6 C-0.38218767 4.34385343 -0.71395102 2.67542976 -1 1 C-0.67 0.67 -0.34 0.34 0 0 Z " fill="#7F4BEE" transform="translate(323,229)"/>
<path d="M0 0 C0.99 0.33 1.98 0.66 3 1 C1.824375 1.928125 1.824375 1.928125 0.625 2.875 C-1.96837647 4.89858661 -1.96837647 4.89858661 -4 7 C-3.6875 4.625 -3.6875 4.625 -3 2 C-2.01 1.34 -1.02 0.68 0 0 Z " fill="#52D2F4" transform="translate(36,61)"/>
<path d="M0 0 C-6.45 4.09326923 -6.45 4.09326923 -9.234375 3.62109375 C-9.81703125 3.41613281 -10.3996875 3.21117187 -11 3 C-9.73581754 2.30034557 -8.46334598 1.61565237 -7.1875 0.9375 C-6.47980469 0.55464844 -5.77210937 0.17179687 -5.04296875 -0.22265625 C-3 -1 -3 -1 0 0 Z " fill="#B2EEF9" transform="translate(54,51)"/>
<path d="M0 0 C2.97 0.99 5.94 1.98 9 3 C9 3.33 9 3.66 9 4 C3.375 4.25 3.375 4.25 0 2 C0 1.34 0 0.68 0 0 Z " fill="#B48AF0" transform="translate(201,382)"/>
<path d="M0 0 C2.475 0.495 2.475 0.495 5 1 C3.35 2.65 1.7 4.3 0 6 C0 4.02 0 2.04 0 0 Z " fill="#A47CF1" transform="translate(305,247)"/>
<path d="M0 0 C0.66 0 1.32 0 2 0 C3.0326802 2.78823655 3.04509293 3.8677274 2.0625 6.75 C1.711875 7.4925 1.36125 8.235 1 9 C0.34 8.67 -0.32 8.34 -1 8 C-0.67 5.36 -0.34 2.72 0 0 Z " fill="#7D62F1" transform="translate(404,83)"/>
<path d="M0 0 C0.99 0 1.98 0 3 0 C1.63016497 3.16115776 1.0109362 3.9927092 -2 6 C-1.125 1.125 -1.125 1.125 0 0 Z " fill="#DD43EB" transform="translate(452,450)"/>
</svg>
